<?xml version="1.0" encoding="UTF-8"?>
<svg width="24px" height="24px" viewBox="0 0 24 24" version="1.1" xmlns="http://www.w3.org/2000/svg" xmlns:xlink="http://www.w3.org/1999/xlink">
    <!-- Generator: Sketch 55 (78076) - https://sketchapp.com -->
    <title>right</title>
    <desc>Created with Sketch.</desc>
    <g id="Symbols" stroke="none" stroke-width="1" fill="none" fill-rule="evenodd">
        <g id="Footer" transform="translate(-985.000000, -578.000000)" fill="#ED3D4A" fill-rule="nonzero">
            <g id="right">
                <g transform="translate(795.000000, 0.000000)">
                    <g id="icons" transform="translate(190.000000, 577.000000)">
                        <g id="Time" transform="translate(0.000000, 1.000000)">
                            <g id="clock">
                                <path d="M12,0 C5.37096774,0 0,5.37096774 0,12 C0,18.6290323 5.37096774,24 12,24 C18.6290323,24 24,18.6290323 24,12 C24,5.37096774 18.6290323,0 12,0 Z M22.4516129,12 C22.4516129,17.7435484 17.8016129,22.4516129 12,22.4516129 C6.25645161,22.4516129 1.5483871,17.8016129 1.5483871,12 C1.5483871,6.25645161 6.1983871,1.5483871 12,1.5483871 C17.7435484,1.5483871 22.4516129,6.1983871 22.4516129,12 Z M15.2467742,16.2725806 L11.3177419,13.4177419 C11.1677419,13.3064516 11.0806452,13.1322581 11.0806452,12.9483871 L11.0806452,5.22580645 C11.0806452,4.90645161 11.3419355,4.64516129 11.6612903,4.64516129 L12.3387097,4.64516129 C12.6580645,4.64516129 12.9193548,4.90645161 12.9193548,5.22580645 L12.9193548,12.3048387 L16.3306452,14.7870968 C16.5919355,14.9758065 16.6451613,15.3387097 16.4564516,15.6 L16.0596774,16.1467742 C15.8709677,16.4032258 15.5080645,16.4612903 15.2467742,16.2725806 L15.2467742,16.2725806 Z" id="Shape"></path>
                            </g>
                        </g>
                    </g>
                </g>
            </g>
        </g>
    </g>
</svg>