<svg width="446" height="260" viewBox="0 0 446 260" version="1.1" xmlns="http://www.w3.org/2000/svg"><g id="Home" stroke="none" stroke-width="1" fill="none" fill-rule="evenodd"><g id="AL_Home" transform="translate(-1293 -5432)"><g id="Compare-Technologies" transform="translate(150 4912)"><g id="3" transform="translate(1113 235)"><g id="img" transform="translate(0 205)"><g id="icon" transform="translate(142 135)" stroke="#2C2E32" stroke-width="2"><g id="top" transform="translate(1)" stroke-linejoin="round"><path id="Path-2" d="M0 10.937h27.428L29.164 0h6.25l1.509 11.567"/><path id="Path-2-Copy" d="M36 10.937h27.428L65.164 0h6.25l1.509 11.567"/><path id="Path-2-Copy-2" d="M72 10.937h27.428L101.164 0h6.25l1.509 11.567"/><path id="Path-2-Copy-3" d="M108 10.937h27.428L137.164 0h6.25l1.509 11.567"/><path id="Path-2-Copy-4" d="M144 10.937h27.428L173.164 0h6.25l1.509 11.567"/><path id="Path-2-Copy-5" d="M180 10.937h27.428L209.164 0h6.25l1.509 11.567"/></g><g id="bottom" transform="translate(.662 85)"><path d="M72.098 62.687C70.185 32.55 70.772 11.655 73.858 0c3.875 30.334 9.912 61.478 21.251 62.329 7.56.566 15.558.958 23.994 1.174" id="Path-3-Copy" stroke-linejoin="round"/><path d="M118.098 62.687c-1.913-30.137-1.326-51.032 1.76-62.687 3.875 30.334 9.912 61.478 21.251 62.329 7.56.566 15.558.958 23.994 1.174" id="Path-3-Copy-3" stroke-linejoin="round"/><path d="M164.098 62.687c-1.913-30.137-1.326-51.032 1.76-62.687 3.875 30.334 9.912 61.478 21.251 62.329 7.56.566 15.558.958 23.994 1.174" id="Path-3-Copy-4" stroke-linejoin="round"/><path d="M210.098 62.687c-1.913-30.137-1.326-51.032 1.76-62.687 1.857 14.53 4.208 29.245 7.401 40.728" id="Path-3-Copy-5" stroke-linejoin="round"/><path d="M26.098 62.687C24.185 32.55 24.772 11.655 27.858 0c3.875 30.334 9.912 61.478 21.251 62.329 7.56.566 15.558.958 23.994 1.174" id="Path-3-Copy-2" stroke-linejoin="round"/><path d="M.279 61.445c.905.509 1.848.81 2.83.884 7.56.566 15.558.958 23.994 1.174" id="Path-3-Copy-6"/></g></g></g></g></g></g></g></svg>