<svg width="446" height="260" viewBox="0 0 446 260" version="1.1" xmlns="http://www.w3.org/2000/svg"><g id="Home" stroke="none" stroke-width="1" fill="none" fill-rule="evenodd"><g id="AL_Home" transform="translate(-180 -5432)"><g id="Compare-Technologies" transform="translate(150 4912)"><g id="1" transform="translate(0 235)"><g id="img" transform="translate(0 205)"><g id="icon" transform="translate(143 99)"><path id="Rectangle" fill="#000" fill-rule="nonzero" d="M19.615 2h1.229v220h-1.229z"/><text id="P" font-family="Lato-Semibold, Lato" font-size="12" font-weight="500" fill="#000"><tspan x="3" y="12">P</tspan></text><text id="t" font-family="Lato-Semibold, Lato" font-size="12" font-weight="500" fill="#000"><tspan x="214" y="219">t</tspan></text><path id="Rectangle" fill="#000" fill-rule="nonzero" d="M.229 202H219v1.236H.229z"/><path d="M44.404 202.618c4.823-30.477 8.822-59.013 12-85.606 4.765-39.89 9.884-75.368 15.355-75.545 8.296 0 16.862 97.961 27.712 97.961 10.85 0 16.42-58.884 26.633-58.884 10.213 0 17.508 35.502 27.235 35.502 9.726 0 18.642-21.56 27.396-21.56 8.754 0 17.177 13.014 27.72 13.014 4.089 0 7.77-2.55 11.105-4.432" id="Path-4" stroke="#2C2E32" stroke-width="2"/></g></g></g></g></g></g></svg>