<svg width="446" height="260" viewBox="0 0 446 260" version="1.1" xmlns="http://www.w3.org/2000/svg"><g id="Home" stroke="none" stroke-width="1" fill="none" fill-rule="evenodd"><g id="AL_Home" transform="translate(-736 -5432)"><g id="Compare-Technologies" transform="translate(150 4912)"><g id="2" transform="translate(556 235)"><g id="img" transform="translate(0 205)"><g id="icon" transform="translate(61 132)" fill="#2C2E32"><path d="M1 153a1 1 0 0 1 1 1v1H0v-1a1 1 0 0 1 1-1z" id="Rectangle"/><path d="M6 126a1 1 0 0 1 1 1v28H5v-28a1 1 0 0 1 1-1z" id="Rectangle-Copy"/><path d="M11 131a1 1 0 0 1 1 1v23h-2v-23a1 1 0 0 1 1-1z" id="Rectangle-Copy-21"/><path d="M16 108a1 1 0 0 1 1 1v46h-2v-46a1 1 0 0 1 1-1z" id="Rectangle-Copy-2"/><path d="M21 80a1 1 0 0 1 1 1v74h-2V81a1 1 0 0 1 1-1z" id="Rectangle-Copy-22"/><path d="M26 49a1 1 0 0 1 1 1v105h-2V50a1 1 0 0 1 1-1z" id="Rectangle-Copy-23"/><path d="M31 67a1 1 0 0 1 1 1v87h-2V68a1 1 0 0 1 1-1z" id="Rectangle-Copy-3"/><path d="M36 58a1 1 0 0 1 1 1v96h-2V59a1 1 0 0 1 1-1z" id="Rectangle-Copy-24"/><path d="M41 46a1 1 0 0 1 1 1v108h-2V47a1 1 0 0 1 1-1z" id="Rectangle-Copy-8"/><path d="M46 59a1 1 0 0 1 1 1v95h-2V60a1 1 0 0 1 1-1z" id="Rectangle-Copy-25"/><path d="M51 62a1 1 0 0 1 1 1v92h-2V63a1 1 0 0 1 1-1z" id="Rectangle-Copy-9"/><path d="M56 72a1 1 0 0 1 1 1v82h-2V73a1 1 0 0 1 1-1z" id="Rectangle-Copy-26"/><path d="M62 91a1 1 0 0 1 1 1v63h-2V92a1 1 0 0 1 1-1z" id="Rectangle-Copy-27"/><path d="M67 105a1 1 0 0 1 1 1v49h-2v-49a1 1 0 0 1 1-1z" id="Rectangle-Copy-10"/><path d="M72 105a1 1 0 0 1 1 1v49h-2v-49a1 1 0 0 1 1-1z" id="Rectangle-Copy-28"/><path d="M82 137a1 1 0 0 1 1 1v17h-2v-17a1 1 0 0 1 1-1z" id="Rectangle-Copy-11"/><path d="M87 105a1 1 0 0 1 1 1v49h-2v-49a1 1 0 0 1 1-1z" id="Rectangle-Copy-29"/><path d="M92 45a1 1 0 0 1 1 1v109h-2V46a1 1 0 0 1 1-1z" id="Rectangle-Copy-12"/><path d="M97 64a1 1 0 0 1 1 1v90h-2V65a1 1 0 0 1 1-1z" id="Rectangle-Copy-13"/><path d="M102 46a1 1 0 0 1 1 1v108h-2V47a1 1 0 0 1 1-1z" id="Rectangle-Copy-30"/><path d="M107 32a1 1 0 0 1 1 1v122h-2V33a1 1 0 0 1 1-1z" id="Rectangle-Copy-31"/><path d="M112 37a1 1 0 0 1 1 1v117h-2V38a1 1 0 0 1 1-1z" id="Rectangle-Copy-14"/><path d="M117 32a1 1 0 0 1 1 1v122h-2V33a1 1 0 0 1 1-1z" id="Rectangle-Copy-32"/><path d="M122 27a1 1 0 0 1 1 1v127h-2V28a1 1 0 0 1 1-1z" id="Rectangle-Copy-15"/><path d="M127 32a1 1 0 0 1 1 1v122h-2V33a1 1 0 0 1 1-1z" id="Rectangle-Copy-16"/><path d="M132 46a1 1 0 0 1 1 1v108h-2V47a1 1 0 0 1 1-1z" id="Rectangle-Copy-17"/><path d="M137 55a1 1 0 0 1 1 1v99h-2V56a1 1 0 0 1 1-1z" id="Rectangle-Copy-18"/><path d="M142 64a1 1 0 0 1 1 1v90h-2V65a1 1 0 0 1 1-1z" id="Rectangle-Copy-19"/><path d="M147 68a1 1 0 0 1 1 1v86h-2V69a1 1 0 0 1 1-1z" id="Rectangle-Copy-33"/><path d="M152 78a1 1 0 0 1 1 1v76h-2V79a1 1 0 0 1 1-1z" id="Rectangle-Copy-34"/><path d="M157 91a1 1 0 0 1 1 1v63h-2V92a1 1 0 0 1 1-1z" id="Rectangle-Copy-35"/><path d="M162 114a1 1 0 0 1 1 1v40h-2v-40a1 1 0 0 1 1-1z" id="Rectangle-Copy-36"/><path d="M167 128a1 1 0 0 1 1 1v26h-2v-26a1 1 0 0 1 1-1z" id="Rectangle-Copy-37"/><path d="M172 136a1 1 0 0 1 1 1v18h-2v-18a1 1 0 0 1 1-1z" id="Rectangle-Copy-38"/><path d="M188 113a1 1 0 0 1 1 1v41h-2v-41a1 1 0 0 1 1-1z" id="Rectangle-Copy-20"/><path d="M193 95a1 1 0 0 1 1 1v59h-2V96a1 1 0 0 1 1-1z" id="Rectangle-Copy-39"/><path d="M198 73a1 1 0 0 1 1 1v81h-2V74a1 1 0 0 1 1-1z" id="Rectangle-Copy-40"/><path d="M203 63a1 1 0 0 1 1 1v91h-2V64a1 1 0 0 1 1-1z" id="Rectangle-Copy-41"/><path d="M208 50a1 1 0 0 1 1 1v104h-2V51a1 1 0 0 1 1-1z" id="Rectangle-Copy-42"/><path d="M213 41a1 1 0 0 1 1 1v113h-2V42a1 1 0 0 1 1-1z" id="Rectangle-Copy-43"/><path d="M218 32a1 1 0 0 1 1 1v122h-2V33a1 1 0 0 1 1-1z" id="Rectangle-Copy-44"/><path d="M223 32a1 1 0 0 1 1 1v122h-2V33a1 1 0 0 1 1-1z" id="Rectangle-Copy-45"/><path d="M228 18a1 1 0 0 1 1 1v136h-2V19a1 1 0 0 1 1-1z" id="Rectangle-Copy-46"/><path d="M233 9a1 1 0 0 1 1 1v145h-2V10a1 1 0 0 1 1-1z" id="Rectangle-Copy-47"/><path d="M238 5a1 1 0 0 1 1 1v149h-2V6a1 1 0 0 1 1-1z" id="Rectangle-Copy-48"/><path d="M243 18a1 1 0 0 1 1 1v136h-2V19a1 1 0 0 1 1-1z" id="Rectangle-Copy-49"/><path d="M248 5a1 1 0 0 1 1 1v149h-2V6a1 1 0 0 1 1-1z" id="Rectangle-Copy-50"/><path d="M253 19a1 1 0 0 1 1 1v135h-2V20a1 1 0 0 1 1-1z" id="Rectangle-Copy-51"/><path d="M258 5a1 1 0 0 1 1 1v149h-2V6a1 1 0 0 1 1-1z" id="Rectangle-Copy-52"/><path d="M263 14a1 1 0 0 1 1 1v140h-2V15a1 1 0 0 1 1-1z" id="Rectangle-Copy-53"/><path d="M268 23a1 1 0 0 1 1 1v131h-2V24a1 1 0 0 1 1-1z" id="Rectangle-Copy-54"/><path d="M273 32a1 1 0 0 1 1 1v122h-2V33a1 1 0 0 1 1-1z" id="Rectangle-Copy-55"/><path d="M278 50a1 1 0 0 1 1 1v104h-2V51a1 1 0 0 1 1-1z" id="Rectangle-Copy-56"/><path d="M288 64a1 1 0 0 1 1 1v90h-2V65a1 1 0 0 1 1-1z" id="Rectangle-Copy-57"/><path d="M293 37a1 1 0 0 1 1 1v117h-2V38a1 1 0 0 1 1-1z" id="Rectangle-Copy-58"/><path d="M298 23a1 1 0 0 1 1 1v131h-2V24a1 1 0 0 1 1-1z" id="Rectangle-Copy-59"/><path d="M303 18a1 1 0 0 1 1 1v136h-2V19a1 1 0 0 1 1-1z" id="Rectangle-Copy-60"/><path d="M308 5a1 1 0 0 1 1 1v149h-2V6a1 1 0 0 1 1-1z" id="Rectangle-Copy-61"/><path d="M313 5a1 1 0 0 1 1 1v149h-2V6a1 1 0 0 1 1-1z" id="Rectangle-Copy-62"/><path d="M318 5a1 1 0 0 1 1 1v149h-2V6a1 1 0 0 1 1-1z" id="Rectangle-Copy-63"/><path d="M323 0a1 1 0 0 1 1 1v154h-2V1a1 1 0 0 1 1-1z" id="Rectangle-Copy-64"/><path d="M328 5a1 1 0 0 1 1 1v149h-2V6a1 1 0 0 1 1-1z" id="Rectangle-Copy-65"/><path d="M333 19a1 1 0 0 1 1 1v135h-2V20a1 1 0 0 1 1-1z" id="Rectangle-Copy-66"/><path d="M338 5a1 1 0 0 1 1 1v149h-2V6a1 1 0 0 1 1-1z" id="Rectangle-Copy-67"/><path d="M343 23a1 1 0 0 1 1 1v131h-2V24a1 1 0 0 1 1-1z" id="Rectangle-Copy-68"/><path d="M348 32a1 1 0 0 1 1 1v122h-2V33a1 1 0 0 1 1-1z" id="Rectangle-Copy-69"/><path d="M353 19a1 1 0 0 1 1 1v135h-2V20a1 1 0 0 1 1-1z" id="Rectangle-Copy-70"/><path d="M358 28a1 1 0 0 1 1 1v126h-2V29a1 1 0 0 1 1-1z" id="Rectangle-Copy-71"/><path d="M363 37a1 1 0 0 1 1 1v117h-2V38a1 1 0 0 1 1-1z" id="Rectangle-Copy-72"/><path d="M368 46a1 1 0 0 1 1 1v108h-2V47a1 1 0 0 1 1-1z" id="Rectangle-Copy-73"/><path d="M373 59a1 1 0 0 1 1 1v95h-2V60a1 1 0 0 1 1-1z" id="Rectangle-Copy-74"/><path d="M378 77a1 1 0 0 1 1 1v77h-2V78a1 1 0 0 1 1-1z" id="Rectangle-Copy-75"/><path d="M383 96a1 1 0 0 1 1 1v58h-2V97a1 1 0 0 1 1-1z" id="Rectangle-Copy-76"/></g></g></g></g></g></g></svg>