<svg width="47" height="31" xmlns="http://www.w3.org/2000/svg"><g fill="#596975" fill-rule="evenodd"><path d="M18 21.995C18 26.413 14.42 30 10.005 30A8.009 8.009 0 0 1 2 21.995C2 17.58 5.587 14 10.005 14A7.995 7.995 0 0 1 18 21.995z"/><path d="M9.5 31C4.261 31 0 26.963 0 22s4.261-9 9.5-9 9.5 4.037 9.5 9-4.261 9-9.5 9zm0-15.227c-3.627 0-6.582 2.792-6.582 6.227 0 3.436 2.955 6.235 6.582 6.235 3.625 0 6.573-2.799 6.573-6.235 0-3.435-2.948-6.227-6.573-6.227zM43 21.995A8.009 8.009 0 0 1 34.995 30C30.58 30 27 26.413 27 21.995A7.995 7.995 0 0 1 34.995 14C39.413 14 43 17.58 43 21.995z"/><path d="M34.495 31C29.26 31 25 26.963 25 22s4.26-9 9.495-9C39.734 13 44 17.037 44 22s-4.266 9-9.505 9zm0-15.227c-3.623 0-6.57 2.792-6.57 6.227 0 3.436 2.947 6.235 6.57 6.235 3.633 0 6.58-2.799 6.58-6.235 0-3.435-2.947-6.227-6.58-6.227zM1.46 22C.65 22 0 21.34 0 20.532 0 9.209 9.209 0 20.532 0a1.464 1.464 0 1 1 0 2.928c-9.704 0-17.604 7.9-17.604 17.604 0 .808-.651 1.468-1.469 1.468z"/><path d="M26.468 22C25.66 22 25 21.34 25 20.532 25 9.209 34.21 0 45.531 0 46.35 0 47 .65 47 1.46a1.46 1.46 0 0 1-1.469 1.468c-9.703 0-17.594 7.9-17.594 17.604 0 .808-.66 1.468-1.469 1.468z"/></g></svg>