<svg xmlns="http://www.w3.org/2000/svg" width="100" height="100"><g fill="none" fill-rule="evenodd"><path d="M-10-10h120v120H-10z"/><g fill="#596975" fill-rule="nonzero"><path d="M29.879 62.677c0 .85-.694 1.538-1.55 1.538a1.543 1.543 0 0 1-1.548-1.538c0-.85.693-1.539 1.549-1.539.855 0 1.549.69 1.549 1.539z"/><path d="M61.29 88.71v8.064H46.774V80.645a1.613 1.613 0 1 0-3.226 0v16.13H30.645v-22.96l7.584 4.55 1.901-9.51 8.457 1.952a8.03 8.03 0 0 1 6.252 7.858v8.43a1.613 1.613 0 1 0 3.226 0v-8.43a11.24 11.24 0 0 0-8.752-11.001l-12.216-2.818v-3.178a12.97 12.97 0 0 0 3.916-5.29c2.01-.175 3.91-1.063 5.28-2.568 1.346-1.482 2.046-3.426 2.05-5.424h.044V32.52a8.68 8.68 0 0 0-5.656-8.145l-3.273-2.617a18.394 18.394 0 0 0-11.452-4.016c-10.106 0-18.329 8.223-18.329 18.329v12.316h.045c.005 1.998.705 3.942 2.053 5.424 1.368 1.505 3.267 2.393 5.279 2.568a12.934 12.934 0 0 0 3.915 5.29v3.178l-12.216 2.82A11.237 11.237 0 0 0 0 78.665V100h61.29a3.229 3.229 0 0 0 3.226-3.226V88.71h27.42a1.613 1.613 0 0 0 0-3.226h-27.42a3.229 3.229 0 0 0-3.226 3.226zM22.213 67.87l3.932 2.95-3.975 2.385-.856-5.128.899-.207zm13.751 5.377L31.92 70.82l3.933-2.95 1.135.261-1.023 5.116zm7.94-21.605c-.559.613-1.268 1.042-2.038 1.303.045-.438.07-.882.07-1.332v-7.718c1.735.658 3.027 2.185 3.2 4.01a4.811 4.811 0 0 1-1.232 3.737zM28.006 20.968c3.416 0 6.768 1.176 9.436 3.309l3.71 2.968.272.092a5.456 5.456 0 0 1 3.737 5.183v9.535a8.485 8.485 0 0 0-4.11-1.673l-3.954-3.953-1.14 1.14a9.337 9.337 0 0 1-6.65 2.754h-11.29c-1.914 0-3.687.669-5.114 1.75V36.07c0-8.327 6.776-15.103 15.103-15.103zm-15.08 26.94c.174-1.826 1.467-3.353 3.203-4.012v7.717c0 .45.024.894.07 1.332-.772-.261-1.481-.69-2.038-1.303a4.807 4.807 0 0 1-1.235-3.734zm6.429 3.705v-8.065h9.953c2.829 0 5.516-.924 7.716-2.628l1.686 1.683v9.01c0 5.337-4.34 9.677-9.678 9.677-5.337 0-9.677-4.34-9.677-9.677zm9.677 12.903c1.712 0 3.344-.342 4.839-.95v1.757l-4.839 3.629-4.838-3.63v-1.756a12.81 12.81 0 0 0 4.838.95zM3.226 78.666a8.03 8.03 0 0 1 6.251-7.858l8.69-2.004 1.599 9.604 7.653-4.592v22.958H14.516V80.645a1.613 1.613 0 1 0-3.226 0v16.13H3.226v-18.11z"/><path d="M35.484 80.645a1.613 1.613 0 1 1 0 3.226 1.613 1.613 0 0 1 0-3.226zm0 6.452a1.613 1.613 0 1 1 0 3.226 1.613 1.613 0 0 1 0-3.226zm62.903-1.613a1.613 1.613 0 1 1 0 3.226 1.613 1.613 0 0 1 0-3.226zm-35.484-6.452h35.484a1.613 1.613 0 1 1 0 3.226H62.903a1.613 1.613 0 0 1 0-3.226zm0-6.452h29.032a1.613 1.613 0 1 1 0 3.226H62.903a1.613 1.613 0 0 1 0-3.225zm35.484 0a1.613 1.613 0 1 1 0 3.226 1.613 1.613 0 0 1 0-3.225zM63.758 52.039c.468.27.758.788.758 1.356v6.282c0 5.338 4.34 9.678 9.678 9.678 5.337 0 9.677-4.34 9.677-9.678v-6.282c0-.568.297-1.091.774-1.366 6.487-3.737 10.516-10.695 10.516-18.158 0-5.761-2.288-11.13-6.445-15.123-4.153-3.99-9.596-6.056-15.39-5.827-10.887.439-19.903 9.666-20.099 20.566a20.979 20.979 0 0 0 10.53 18.552zm3.984 4.413h12.903v3.225H67.742v-3.225zm1.613-16.13h-1.613a1.616 1.616 0 0 1-1.613-1.612c0-.889.725-1.613 1.613-1.613s1.613.724 1.613 1.613v1.613zm6.451 12.904h-3.225v-9.678h3.225v9.678zm-1.612 12.903c-2.378 0-4.436-1.307-5.555-3.226h11.108c-1.118 1.92-3.176 3.226-5.553 3.226zm-.738-49.986c.248-.01.496-.014.742-.014 4.61 0 8.947 1.742 12.284 4.945 3.516 3.378 5.453 7.923 5.453 12.797 0 6.313-3.409 12.2-8.9 15.363-1.424.821-2.308 2.34-2.367 3.992h-1.636v-9.678h1.613a4.845 4.845 0 0 0 4.839-4.838 4.845 4.845 0 0 0-4.839-4.839 4.845 4.845 0 0 0-4.839 4.839v1.613h-3.225V38.71a4.845 4.845 0 0 0-4.84-4.839 4.845 4.845 0 0 0-4.838 4.839 4.845 4.845 0 0 0 4.839 4.838h1.613v9.678h-1.636c-.059-1.652-.937-3.168-2.353-3.983a17.75 17.75 0 0 1-8.911-15.697c.164-9.223 7.792-17.03 17.001-17.403zm5.576 24.18V38.71c0-.889.725-1.613 1.613-1.613.889 0 1.613.724 1.613 1.613 0 .888-.724 1.613-1.613 1.613h-1.613z"/><path d="M85.484 33.871h3.226c0-5.166-2.781-9.984-7.257-12.572l-1.616 2.791a11.332 11.332 0 0 1 5.647 9.781zm-7.661-14.058a14.506 14.506 0 0 0-3.63-.458v3.226c.959 0 1.909.12 2.823.355l.807-3.123zM74.194 0c.89 0 1.612.722 1.612 1.613v6.452a1.613 1.613 0 0 1-3.225 0V1.613c0-.89.722-1.613 1.613-1.613zM50.243 9.921c.63-.63 1.65-.63 2.28 0l4.563 4.562a1.613 1.613 0 0 1-2.281 2.28l-4.562-4.56a1.613 1.613 0 0 1 0-2.282zM91.3 14.483l4.562-4.562a1.613 1.613 0 1 1 2.28 2.28l-4.561 4.563a1.613 1.613 0 1 1-2.28-2.28z"/></g></g></svg>