<svg width="120" height="120" viewBox="0 0 120 120" version="1.1" xmlns="http://www.w3.org/2000/svg"><g id="About" stroke="none" stroke-width="1" fill="none" fill-rule="evenodd"><g id="AL_About-Copy" transform="translate(-343 -2046)"><g id="Core-Values" transform="translate(343 1685)"><g id="Icons" transform="translate(0 361)"><g id="1"><g id="icon"><path id="Icon-120" d="M0 0h120v120H0z"/><g id="team" transform="translate(10 10)" fill="#596975" fill-rule="nonzero"><path d="M26.336 37.242L3.328 14.234A1.95 1.95 0 0 0 .57 16.991l22.436 22.436-.003 2.686a1.95 1.95 0 0 0 1.946 1.953h.003a1.95 1.95 0 0 0 1.95-1.947l.004-3.495a1.95 1.95 0 0 0-.57-1.382zM44.03 23h-.003l-4.6.007L16.991.571a1.95 1.95 0 0 0-2.757 2.757l23.009 23.008a1.95 1.95 0 0 0 1.378.571h.003l5.408-.008a1.95 1.95 0 0 0-.003-3.898zM85.571.571A1.964 1.964 0 0 0 84.193 0c-.512 0-1.015.208-1.378.571a1.964 1.964 0 0 0-.571 1.378c0 .513.208 1.016.571 1.378.363.363.866.572 1.378.572.513 0 1.016-.209 1.378-.572a1.96 1.96 0 0 0 .571-1.378c0-.512-.208-1.015-.57-1.378zM79.862 6.28a1.95 1.95 0 0 0-2.757 0L60.378 23.007l-2.687-.004h-.027a19.18 19.18 0 0 0-13.653 5.655l-1.752 1.753a1.95 1.95 0 0 0 2.757 2.756l1.752-1.752a15.305 15.305 0 0 1 10.896-4.513h.022l3.495.005h.003a1.95 1.95 0 0 0 1.379-.57l17.299-17.3a1.95 1.95 0 0 0 0-2.757zm19.372 7.954a1.95 1.95 0 0 0-2.756 0L73.469 37.242a1.95 1.95 0 0 0-.57 1.382l.007 5.408a1.95 1.95 0 0 0 1.95 1.947h.002a1.95 1.95 0 0 0 1.947-1.953l-.007-4.6 22.436-22.435a1.95 1.95 0 0 0 0-2.757zm0 68.58L76.798 60.378l.004-2.687a19.206 19.206 0 0 0-1.473-7.424 1.95 1.95 0 0 0-3.602 1.493 15.33 15.33 0 0 1 1.176 5.926l-.005 3.495c0 .518.205 1.015.571 1.382L96.478 85.57c.38.38.88.571 1.378.571a1.95 1.95 0 0 0 1.378-3.328zM85.571 96.477L62.563 73.47a1.95 1.95 0 0 0-1.379-.57h-.002l-5.409.007a1.95 1.95 0 0 0 .003 3.898h.003l4.6-.006 22.436 22.436c.38.38.88.571 1.378.571a1.95 1.95 0 0 0 1.378-3.328zm-68.581.001a1.963 1.963 0 0 0-1.378-.572c-.512 0-1.015.209-1.378.572a1.964 1.964 0 0 0-.571 1.378c0 .512.209 1.015.571 1.378.363.362.866.571 1.378.571.513 0 1.016-.209 1.378-.571.365-.363.572-.866.572-1.378 0-.513-.207-1.016-.572-1.378z" id="Path"/><path d="M69.714 49.46a5.465 5.465 0 0 0-1.475-1.051c.456-.81.7-1.728.7-2.684a5.457 5.457 0 0 0-1.608-3.883 5.469 5.469 0 0 0-1.573-1.1 5.5 5.5 0 0 0-1.062-6.267 5.501 5.501 0 0 0-6.267-1.064 5.496 5.496 0 0 0-8.867-1.571l-7.782 7.782a5.568 5.568 0 0 0-2.347-4.048 5.527 5.527 0 0 0-4.217-.912 5.529 5.529 0 0 0-3.604 2.373l-5.34 7.963a19.242 19.242 0 0 0-3.271 10.78l.006 4.6L.571 82.814a1.95 1.95 0 0 0 2.757 2.757l23.008-23.008a1.95 1.95 0 0 0 .571-1.382l-.008-5.408a15.355 15.355 0 0 1 2.612-8.604l5.34-7.963a1.659 1.659 0 0 1 1.08-.711 1.66 1.66 0 0 1 1.266.273c.718.504.925 1.485.47 2.236l-2.086 3.441a2.444 2.444 0 0 0 .588 3.226c.998.784 2.375.7 3.273-.197l12.877-12.878a1.595 1.595 0 0 1 2.72 1.127c0 .361-.12.703-.34.983l-7.621 7.638a1.95 1.95 0 0 0 2.757 2.757l9.851-9.87a1.595 1.595 0 0 1 2.253 0 1.595 1.595 0 0 1 0 2.254l-9.86 9.86a1.95 1.95 0 0 0 2.756 2.757l7.63-7.63a1.595 1.595 0 0 1 2.576 1.253c0 .425-.166.825-.467 1.126l-7.494 7.495a1.95 1.95 0 0 0 2.756 2.757l5.012-5.012a1.594 1.594 0 0 1 2.576 1.252c0 .426-.165.826-.466 1.127l-13.92 13.92a15.305 15.305 0 0 1-10.896 4.513h-.022l-3.496-.005h-.002a1.95 1.95 0 0 0-1.379.571L19.132 91.581a1.95 1.95 0 0 0 2.756 2.756l17.54-17.54 2.686.005h.028a19.18 19.18 0 0 0 13.653-5.655l13.919-13.92a5.498 5.498 0 0 0 0-7.767z" id="Path"/></g></g></g></g></g></g></g></svg>