<svg width="120" height="120" viewBox="0 0 120 120" version="1.1" xmlns="http://www.w3.org/2000/svg"><g id="About" stroke="none" stroke-width="1" fill="none" fill-rule="evenodd"><g id="AL_About-Copy" transform="translate(-1456 -2696)"><g id="Core-Values" transform="translate(343 1685)"><g id="Icons" transform="translate(0 361)"><g id="6" transform="translate(1113 650)"><g id="icon"><path id="Icon-120" d="M0 0h120v120H0z"/><g id="team-(1)" transform="translate(10 10)" fill="#596975" fill-rule="nonzero"><path d="M90.75 81.553c1.594-1.472 2.612-3.56 2.612-5.897v-3.219c0-4.438-3.611-8.048-8.049-8.048-3.885 0-7.137 2.77-7.886 6.438H72.14c-.667-1.869-2.437-3.219-4.533-3.219-2.096 0-3.867 1.35-4.533 3.22h-5.287a8.074 8.074 0 0 0-6.276-6.277v-3.61c2.77-.72 4.829-3.218 4.829-6.21h1.61c.889 0 1.609-.72 1.609-1.61v-4.829h1.61a1.61 1.61 0 1 0 0-3.22h-1.61v-.017c0-3.079 1.46-6.106 4.004-8.298a20.893 20.893 0 0 0 7.264-15.83c0-5.748-2.285-11.109-6.433-15.093C60.25 1.85 54.77-.23 49.038.02c-10.865.438-19.865 9.647-20.06 20.527a20.87 20.87 0 0 0 7.125 16.093c2.552 2.237 4.036 5.298 4.124 8.433h-1.594a1.61 1.61 0 1 0 0 3.22h1.61v4.828c0 .89.72 1.61 1.61 1.61h1.61c0 2.992 2.058 5.49 4.828 6.21v3.61a8.074 8.074 0 0 0-6.276 6.276h-5.288c-.666-1.869-2.437-3.219-4.532-3.219-2.096 0-3.867 1.35-4.534 3.22h-5.287c-.749-3.669-3.999-6.44-7.886-6.44-4.438 0-8.048 3.611-8.048 8.049v3.22c0 2.335 1.017 4.424 2.612 5.896-5.3 2.155-9.05 7.354-9.05 13.42v3.218c0 .891.719 1.61 1.61 1.61h25.754c.89 0 1.61-.719 1.61-1.61v-3.219c0-6.065-3.751-11.264-9.052-13.42 1.595-1.47 2.613-3.56 2.613-5.896v-1.61h5.124c.667 1.87 2.438 3.22 4.534 3.22 2.095 0 3.866-1.35 4.532-3.22h5.126v1.61c0 2.336 1.017 4.425 2.611 5.897-5.3 2.155-9.05 7.354-9.05 13.42v3.218c0 .891.72 1.61 1.61 1.61h25.754c.89 0 1.61-.719 1.61-1.61v-3.219c0-6.065-3.75-11.264-9.051-13.42 1.594-1.47 2.612-3.56 2.612-5.896v-1.61h5.125c.666 1.87 2.437 3.22 4.533 3.22 2.096 0 3.866-1.35 4.533-3.22h5.125v1.61c0 2.336 1.017 4.425 2.612 5.897-5.3 2.155-9.05 7.354-9.05 13.42v3.218c0 .891.719 1.61 1.61 1.61H98.19c.89 0 1.61-.719 1.61-1.61v-3.219c0-6.065-3.751-11.264-9.052-13.42zm-64.994 13.42v1.609h-3.22v-1.61a1.61 1.61 0 0 0-3.22 0l.001 1.61H9.66v-1.61a1.61 1.61 0 1 0-3.22 0v1.61H3.22v-1.61c0-6.211 5.056-11.267 11.268-11.267 6.212 0 11.268 5.056 11.268 11.267zM9.66 75.655v-3.219a4.835 4.835 0 0 1 4.828-4.829 4.835 4.835 0 0 1 4.83 4.829v3.22a4.835 4.835 0 0 1-4.83 4.828 4.835 4.835 0 0 1-4.828-4.829zm22.535-1.61a1.61 1.61 0 1 1 0-3.219 1.61 1.61 0 0 1 0 3.22zm.003-53.443c.166-9.206 7.778-16.996 16.969-17.367 4.91-.179 9.49 1.552 12.996 4.92a17.552 17.552 0 0 1 5.444 12.772c0 5.142-2.24 10.023-6.146 13.389-3.255 2.807-5.121 6.72-5.121 10.738v.018H43.446c-.087-4.061-1.97-8.005-5.222-10.854a17.653 17.653 0 0 1-6.026-13.616zm24.142 27.69v3.218H43.462v-3.219H56.34zm-9.658 6.438h6.438a3.223 3.223 0 0 1-3.219 3.219 3.222 3.222 0 0 1-3.22-3.22zm14.487 40.241v1.61h-3.22v-1.61a1.61 1.61 0 1 0-3.22 0v1.61h-9.657v-1.61a1.61 1.61 0 1 0-3.22 0v1.61h-3.219v-1.61c0-6.211 5.056-11.267 11.268-11.267 6.211 0 11.268 5.056 11.268 11.267zM45.072 75.656v-3.219a4.835 4.835 0 0 1 4.829-4.829 4.835 4.835 0 0 1 4.829 4.829v3.22a4.835 4.835 0 0 1-4.829 4.828 4.835 4.835 0 0 1-4.829-4.829zm22.535-1.61a1.61 1.61 0 1 1 0-3.219 1.61 1.61 0 0 1 0 3.22zm12.877 1.61v-3.219a4.835 4.835 0 0 1 4.83-4.829 4.835 4.835 0 0 1 4.828 4.829v3.22a4.835 4.835 0 0 1-4.829 4.828 4.835 4.835 0 0 1-4.829-4.829zm16.097 20.926h-3.22v-1.61a1.61 1.61 0 0 0-3.22 0l.001 1.61h-9.658v-1.61a1.61 1.61 0 1 0-3.22 0l.001 1.61h-3.22v-1.61c0-6.211 5.056-11.267 11.268-11.267 6.212 0 11.268 5.056 11.268 11.267v1.61z" id="Shape"/><path d="M48.291 38.634h3.22a1.61 1.61 0 1 1 0 3.22h-3.22a1.61 1.61 0 1 1 0-3.22z" id="Path"/><path d="M48.291 28.814v3.382h3.22v-3.382a7.98 7.98 0 0 0 2.821-1.179l2.48 2.48 2.275-2.277-2.479-2.479a8.003 8.003 0 0 0 1.179-2.821h3.382v-3.22h-3.382a8.003 8.003 0 0 0-1.179-2.821l2.479-2.48-2.276-2.275-2.479 2.478a7.98 7.98 0 0 0-2.821-1.178V9.66h-3.22v3.382a7.984 7.984 0 0 0-2.822 1.178l-2.479-2.478-2.275 2.276 2.479 2.479a7.99 7.99 0 0 0-1.18 2.821h-3.38v3.22h3.38a7.99 7.99 0 0 0 1.18 2.821l-2.48 2.48 2.276 2.275 2.479-2.479c.844.56 1.797.97 2.822 1.179zm1.61-12.715a4.835 4.835 0 0 1 4.829 4.829 4.835 4.835 0 0 1-4.829 4.829 4.835 4.835 0 0 1-4.829-4.83 4.835 4.835 0 0 1 4.829-4.828z" id="Shape"/></g></g></g></g></g></g></g></svg>