<svg width="120" height="120" viewBox="0 0 120 120" version="1.1" xmlns="http://www.w3.org/2000/svg"><g id="About" stroke="none" stroke-width="1" fill="none" fill-rule="evenodd"><g id="AL_About-Copy" transform="translate(-343 -2696)"><g id="Core-Values" transform="translate(343 1685)"><g id="Icons" transform="translate(0 361)"><g id="4" transform="translate(0 650)"><g id="icon"><path id="Icon-120" d="M0 0h120v120H0z"/><g id="people" transform="translate(10 10)" fill="#596975" fill-rule="nonzero"><path d="M89.476 72.103a9.017 9.017 0 0 0 1.626-5.173v-1.78c0-5.001-4.069-9.07-9.07-9.07-5.003 0-9.072 4.069-9.072 9.07v1.78a9.02 9.02 0 0 0 1.626 5.173 10.844 10.844 0 0 0-8.57 4.643 10.844 10.844 0 0 0-8.57-4.643 9.017 9.017 0 0 0 1.625-5.173v-1.78c0-5.001-4.07-9.07-9.071-9.07-5.002 0-9.071 4.069-9.071 9.07v1.78c0 1.922.602 3.705 1.626 5.173a10.844 10.844 0 0 0-8.57 4.643 10.844 10.844 0 0 0-8.571-4.643 9.017 9.017 0 0 0 1.626-5.173v-1.78c0-5.001-4.07-9.07-9.071-9.07-5.002 0-9.071 4.069-9.071 9.07v1.78c0 1.922.602 3.705 1.626 5.173C4.692 72.277 0 77.073 0 82.946v15.1C0 99.127.874 100 1.953 100h96.094A1.953 1.953 0 0 0 100 98.047V82.946c0-5.874-4.692-10.669-10.524-10.843zm-76.672-6.952a5.17 5.17 0 0 1 5.165-5.165 5.17 5.17 0 0 1 5.165 5.165v1.78a5.17 5.17 0 0 1-5.165 5.164 5.17 5.17 0 0 1-5.165-5.165v-1.78zM32.03 96.094H3.906V82.946A6.952 6.952 0 0 1 10.851 76h5.165v5.38a1.953 1.953 0 1 0 3.906 0V76h5.165a6.952 6.952 0 0 1 6.944 6.945v13.148zM44.835 65.15A5.17 5.17 0 0 1 50 59.986a5.17 5.17 0 0 1 5.165 5.165v1.78A5.17 5.17 0 0 1 50 72.094a5.17 5.17 0 0 1-5.165-5.165v-1.78zm19.227 30.943H35.939V82.946A6.952 6.952 0 0 1 42.882 76h5.19v9.367a1.953 1.953 0 1 0 3.906 0V76h5.14a6.952 6.952 0 0 1 6.944 6.945v13.148zM76.867 65.15a5.17 5.17 0 0 1 5.165-5.165 5.17 5.17 0 0 1 5.165 5.165v1.78a5.17 5.17 0 0 1-5.165 5.164 5.17 5.17 0 0 1-5.165-5.165v-1.78zm19.228 30.943H67.969V82.946A6.952 6.952 0 0 1 74.913 76h5.215v9.367a1.953 1.953 0 1 0 3.906 0V76h5.115a6.952 6.952 0 0 1 6.945 6.945v13.148z" id="Shape"/><path d="M19.35 86.705a1.968 1.968 0 0 0-1.381-.572c-.514 0-1.018.209-1.381.572a1.968 1.968 0 0 0-.572 1.38c0 .515.209 1.019.572 1.382s.867.572 1.38.572c.514 0 1.018-.209 1.382-.572.363-.363.572-.867.572-1.381s-.21-1.018-.572-1.38zM87.5 0h-7.114a1.953 1.953 0 1 0 0 3.906h2.401l-7.438 7.439a1.953 1.953 0 0 0 2.762 2.762l7.436-7.436v2.396a1.953 1.953 0 1 0 3.906 0V1.953A1.953 1.953 0 0 0 87.5 0zM73.18 16.275a1.966 1.966 0 0 0-1.381-.57c-.516 0-1.018.207-1.381.57a1.964 1.964 0 0 0-.572 1.383c0 .514.207 1.018.572 1.381.363.363.865.572 1.38.572.514 0 1.018-.209 1.382-.572.363-.363.572-.867.572-1.38 0-.516-.209-1.018-.572-1.384zm-4.7 4.701c-.763-.763-2-.763-2.762 0L54.229 32.464l-14.671-14.67c-.763-.763-2-.763-2.762 0L7.898 46.692a1.953 1.953 0 0 0 2.762 2.762l27.517-27.517 14.67 14.67c.764.764 2 .764 2.763 0l12.87-12.87a1.951 1.951 0 0 0 0-2.761z" id="Path"/><path d="M16.788 7.813c-4.524 0-8.203 3.68-8.203 8.203s3.68 8.203 8.203 8.203 8.203-3.68 8.203-8.203c0-4.524-3.68-8.203-8.203-8.203zm0 12.5a4.302 4.302 0 0 1-4.297-4.297 4.302 4.302 0 0 1 4.297-4.297 4.302 4.302 0 0 1 4.297 4.297 4.302 4.302 0 0 1-4.297 4.297z" id="Shape"/><path d="M84.793 39.383l4.088-4.088a1.953 1.953 0 0 0-2.762-2.762L82.03 36.62l-4.087-4.088a1.953 1.953 0 0 0-2.763 2.762l4.088 4.088-4.088 4.088a1.953 1.953 0 0 0 2.763 2.762l4.087-4.088 4.088 4.088c.381.381.881.572 1.381.572s1-.19 1.381-.572c.763-.763.763-2 0-2.762l-4.088-4.088z" id="Path"/></g></g></g></g></g></g></g></svg>