<svg width="120" height="120" viewBox="0 0 120 120" version="1.1" xmlns="http://www.w3.org/2000/svg"><g id="About" stroke="none" stroke-width="1" fill="none" fill-rule="evenodd"><g id="AL_About-Copy" transform="translate(-1456 -2046)" fill="#596975" fill-rule="nonzero"><g id="Core-Values" transform="translate(343 1685)"><g id="Icons" transform="translate(0 361)"><g id="3" transform="translate(1113)"><g id="icon"><g id="setting" transform="translate(10 10)"><path d="M28.447 36.192a1.953 1.953 0 0 0-2.762 0l-.02.02a1.953 1.953 0 0 0 2.762 2.762l.02-.02c.763-.763.763-2 0-2.762z" id="Path"/><path d="M85.752 45.666h-4.97a37.204 37.204 0 0 0-.928-2.985 1.953 1.953 0 0 0-3.677 1.316c.33.923.623 1.873.87 2.824a3.684 3.684 0 0 0 3.57 2.751h4.92v11.394h-4.932a3.685 3.685 0 0 0-3.568 2.746 33.176 33.176 0 0 1-3.497 8.423 3.685 3.685 0 0 0 .576 4.472l3.495 3.495-8.056 8.056-3.507-3.507a3.687 3.687 0 0 0-4.466-.58 33.186 33.186 0 0 1-8.412 3.479 3.684 3.684 0 0 0-2.751 3.569v4.965H39.025v-4.976a3.685 3.685 0 0 0-2.747-3.569 33.173 33.173 0 0 1-8.397-3.482 3.686 3.686 0 0 0-4.47.578l-3.522 3.523-8.056-8.056 3.523-3.523a3.686 3.686 0 0 0 .578-4.47 33.163 33.163 0 0 1-3.482-8.396 3.685 3.685 0 0 0-3.569-2.747H3.906V49.572H8.87a3.684 3.684 0 0 0 3.57-2.751 33.18 33.18 0 0 1 3.478-8.412 3.686 3.686 0 0 0-.58-4.466l-3.507-3.507 8.057-8.056 3.494 3.495a3.685 3.685 0 0 0 4.472.576 33.163 33.163 0 0 1 8.423-3.497 3.685 3.685 0 0 0 2.746-3.568v-4.933h11.394v4.921a3.684 3.684 0 0 0 2.751 3.57c.93.241 1.858.526 2.76.847a1.953 1.953 0 1 0 1.308-3.68 37.194 37.194 0 0 0-2.913-.902v-4.97a3.695 3.695 0 0 0-3.691-3.692H38.81a3.695 3.695 0 0 0-3.691 3.692v4.981a37.089 37.089 0 0 0-9.091 3.775l-3.529-3.529a3.696 3.696 0 0 0-5.22 0l-8.36 8.36a3.696 3.696 0 0 0 0 5.22l3.54 3.54a37.09 37.09 0 0 0-3.754 9.08H3.691A3.695 3.695 0 0 0 0 49.358V61.18a3.695 3.695 0 0 0 3.691 3.691h5.026a37.082 37.082 0 0 0 3.759 9.064L8.919 77.49a3.696 3.696 0 0 0 0 5.22l8.36 8.36a3.696 3.696 0 0 0 5.22 0l3.557-3.556a37.076 37.076 0 0 0 9.063 3.758V96.3a3.695 3.695 0 0 0 3.691 3.691h11.823a3.696 3.696 0 0 0 3.691-3.691v-5.014a37.077 37.077 0 0 0 9.08-3.755l3.54 3.541a3.696 3.696 0 0 0 5.22 0l8.36-8.36a3.696 3.696 0 0 0 0-5.22l-3.528-3.528a37.089 37.089 0 0 0 3.774-9.092h4.982a3.695 3.695 0 0 0 3.691-3.691V49.358a3.695 3.695 0 0 0-3.691-3.692z" id="Path"/><path d="M99.524 15.312c-.955-2.31-3.102-3.75-5.602-3.756l-5.455-.014-.014-5.455c-.007-2.5-1.446-4.646-3.756-5.601-2.31-.955-4.845-.452-6.615 1.313L65.036 14.813a1.953 1.953 0 0 0-.574 1.383v16.589l-2.107 2.107a26.931 26.931 0 0 0-15.681-6.505v-2.281a1.953 1.953 0 0 0-3.906 0v2.278a26.894 26.894 0 0 0-9.972 2.71 1.953 1.953 0 0 0 1.729 3.502 22.996 22.996 0 0 1 8.243-2.293v1.744a1.953 1.953 0 0 0 3.906 0v-1.745c4.674.4 9.202 2.223 12.912 5.36l-5.56 5.56a15.152 15.152 0 0 0-9.305-3.186c-8.399 0-15.232 6.834-15.232 15.233 0 8.4 6.833 15.233 15.232 15.233 8.4 0 15.233-6.834 15.233-15.233a15.15 15.15 0 0 0-3.168-9.284l5.56-5.56a22.943 22.943 0 0 1 5.325 12.891h-1.728a1.953 1.953 0 0 0 0 3.906h1.728a22.941 22.941 0 0 1-6.655 14.342 22.94 22.94 0 0 1-14.341 6.655V76.49a1.953 1.953 0 0 0-3.906 0v1.728a22.941 22.941 0 0 1-14.342-6.655 23.061 23.061 0 0 1-6.658-14.342H23.5a1.953 1.953 0 0 0 0-3.906h-1.736a22.925 22.925 0 0 1 2.135-7.934 1.952 1.952 0 1 0-3.528-1.675 26.816 26.816 0 0 0-2.522 9.609h-2.29a1.953 1.953 0 0 0 0 3.906h2.295c.466 6.316 3.138 12.43 7.811 17.104 4.628 4.627 10.641 7.363 17.104 7.823v2.283a1.953 1.953 0 0 0 3.906 0V82.15c6.463-.46 12.477-3.196 17.104-7.823 4.627-4.628 7.364-10.641 7.823-17.104h2.284a1.953 1.953 0 0 0 0-3.906h-2.284a26.71 26.71 0 0 0-6.483-15.663l2.106-2.106h16.59c.518 0 1.015-.207 1.382-.574L98.21 21.927c1.764-1.77 2.268-4.305 1.313-6.615zM44.72 66.596c-6.245 0-11.326-5.081-11.326-11.327 0-6.246 5.08-11.327 11.326-11.327 2.424 0 4.67.768 6.515 2.07l-3.46 3.459a1.953 1.953 0 0 0 2.762 2.762l3.457-3.457a11.262 11.262 0 0 1 2.053 6.493c0 6.245-5.08 11.327-11.327 11.327zm23.647-49.59L80.841 4.565c.951-.95 2.05-.6 2.364-.47.314.13 1.339.658 1.342 2.002l.017 6.586-10.68 10.68-5.516 5.516V17.006zm27.077 2.162L83.003 31.641H71.13l5.517-5.517 10.68-10.68 6.585.018c1.344.003 1.873 1.028 2.002 1.342.13.314.48 1.413-.47 2.364z" id="Shape"/><path d="M45.86 54.148a1.96 1.96 0 0 0-1.38-.572c-.514 0-1.018.209-1.381.572a1.969 1.969 0 0 0-.572 1.38c0 .516.209 1.018.572 1.381a1.96 1.96 0 0 0 1.38.573 1.956 1.956 0 0 0 1.953-1.953 1.96 1.96 0 0 0-.572-1.381z" id="Path"/></g></g></g></g></g></g></g></svg>