<svg width="120" height="120" viewBox="0 0 120 120" version="1.1" xmlns="http://www.w3.org/2000/svg"><g id="About" stroke="none" stroke-width="1" fill="none" fill-rule="evenodd"><g id="AL_About-Copy" transform="translate(-900 -2696)"><g id="Core-Values" transform="translate(343 1685)"><g id="Icons" transform="translate(0 361)"><g id="5" transform="translate(557 650)"><g id="icon"><path id="Icon-120" d="M0 0h120v120H0z"/><g id="develop" transform="translate(10 10)" fill="#596975" fill-rule="nonzero"><path d="M94.14 69.531h-6.25V18.203h.644a1.954 1.954 0 0 0 1.655-2.99L83.687 4.83a1.953 1.953 0 0 0-3.31 0l-6.504 10.384a1.953 1.953 0 0 0 1.656 2.99h.643v37.852a1.953 1.953 0 0 0 3.906 0V16.25c0-.787-.465-1.464-1.134-1.774l3.087-4.93 3.088 4.93c-.67.31-1.135.987-1.135 1.774v53.28H69.922a5.866 5.866 0 0 0-5.86 5.86v.726a5.831 5.831 0 0 0-1.953-.336h-8.776V54.266c0-5.384-4.381-9.765-9.766-9.765h-2.31v-2.38a6.561 6.561 0 0 0 2.688.575h10.133a5.792 5.792 0 0 0 5.785-5.785 5.792 5.792 0 0 0-5.785-5.786h-5.022v-2.197c0-5.908-3.996-10.897-9.426-12.414a9.035 9.035 0 0 0 1.98-5.651V9.08c0-5.007-4.072-9.08-9.08-9.08s-9.08 4.073-9.08 9.08v1.783a9.03 9.03 0 0 0 1.915 5.568c-5.584 1.414-9.728 6.48-9.728 12.497v10.12c0 4.713 3.361 8.655 7.813 9.556v11.064a1.953 1.953 0 0 0 3.906 0V48.407h16.211c3.23 0 5.86 2.629 5.86 5.86V75.78h-4.688V56.624a1.953 1.953 0 0 0-1.953-1.953h-8.802a1.953 1.953 0 0 0-1.953 1.953v28.532h-4.675v-9.57a1.953 1.953 0 0 0-3.906 0v9.57H5.86A5.866 5.866 0 0 0 0 91.016v7.03C0 99.127.874 100 1.953 100h96.094A1.953 1.953 0 0 0 100 98.047V75.39a5.867 5.867 0 0 0-5.86-5.86zM27.357 9.081a5.18 5.18 0 0 1 5.174-5.175 5.18 5.18 0 0 1 5.175 5.175v1.782a5.18 5.18 0 0 1-5.175 5.174 5.18 5.18 0 0 1-5.174-5.174V9.08zm11.948 19.877a1.953 1.953 0 0 0-1.953 1.953V44.5h-9.995V30.91a1.953 1.953 0 1 0-3.906 0v13.65a5.852 5.852 0 0 1-3.907-5.513v-10.12c0-4.954 4.03-8.985 8.985-8.985h7.637c4.955 0 8.985 4.03 8.985 8.985v4.15c0 1.079.874 1.953 1.953 1.953h6.975c1.036 0 1.879.843 1.879 1.88a1.881 1.881 0 0 1-1.88 1.878H43.946a2.69 2.69 0 0 1-2.687-2.687V30.91a1.953 1.953 0 0 0-1.954-1.953zm-7.273 67.136H3.906v-5.078c0-1.077.876-1.954 1.953-1.954h24.22c1.076 0 1.952.877 1.952 1.954v5.078zm3.907-37.516h4.895V75.78H37.89c-.685 0-1.342.12-1.953.336v-17.54zm28.124 37.516H35.939V81.64c0-1.077.876-1.954 1.953-1.954H62.11c1.077 0 1.953.877 1.953 1.954v14.453zm32.032 0H67.969V75.39c0-1.077.876-1.954 1.953-1.954H94.14c1.077 0 1.953.877 1.953 1.954v20.703z" id="Shape"/><path d="M26.783 65.883a1.969 1.969 0 0 0-1.38-.572c-.514 0-1.016.209-1.382.572a1.968 1.968 0 0 0-.572 1.38c0 .514.21 1.018.572 1.382.364.363.868.572 1.381.572.514 0 1.018-.21 1.381-.572.363-.364.572-.868.572-1.381 0-.514-.209-1.018-.572-1.381zm52.723-3.787a1.968 1.968 0 0 0-1.381-.573c-.514 0-1.018.21-1.38.573a1.968 1.968 0 0 0-.573 1.38c0 .514.209 1.018.572 1.381.363.364.867.573 1.381.573s1.018-.21 1.38-.573c.364-.363.573-.867.573-1.38 0-.514-.209-1.018-.572-1.381z" id="Path"/></g></g></g></g></g></g></g></svg>