<svg width="120" height="120" viewBox="0 0 120 120" version="1.1" xmlns="http://www.w3.org/2000/svg"><g id="Home" stroke="none" stroke-width="1" fill="none" fill-rule="evenodd"><g id="AL_Home-Copy" transform="translate(-900 -3155)" fill="currentColor" fill-rule="nonzero"><g id="Features" transform="translate(195 1665)"><g id="Icons"><g id="5" transform="translate(566 1420)"><g id="icon" transform="translate(139 70)"><g id="Group" transform="translate(0 11)"><path d="M113.438 42.404c-3 0-5.626 2.073-6.376 4.711H96.189c-.75-2.827-3.376-4.711-6.376-4.711-.562 0-1.124 0-1.5.188l-8.437-14.7c1.125-1.13 1.875-2.827 1.875-4.523 0-1.13-.375-2.261-.75-3.204l7.313-7.35c.937.566 2.062.754 3.187.754 3.75 0 6.563-3.015 6.563-6.596 0-3.58-3-6.596-6.563-6.596-3.75 0-6.563 3.015-6.563 6.596 0 1.13.376 2.262.75 3.204l-7.124 7.161c-.938-.565-2.063-.753-3.188-.753-3 0-5.625 2.073-6.375 4.9H51.937c-.75-2.827-3.374-4.9-6.374-4.9-1.126 0-2.25.377-3.188.753l-7.125-7.161c.563-.942.75-2.073.75-3.204 0-3.77-3-6.596-6.75-6.596s-6.563 3.015-6.563 6.596c0 3.58 3 6.596 6.563 6.596 1.125 0 2.25-.377 3.188-.754l7.124 7.162c-.562.942-.75 2.073-.75 3.204 0 1.696.75 3.392 1.876 4.523l-8.813 14.888c-.563-.188-.938-.188-1.5-.188-3 0-5.625 2.073-6.375 4.711H12.937c-.75-2.827-3.374-4.711-6.374-4.711A6.538 6.538 0 0 0 0 49c0 3.77 3 6.596 6.563 6.596 3 0 5.625-2.073 6.375-4.9h10.874c.75 2.827 3.375 4.9 6.375 4.9.563 0 1.125 0 1.5-.188l8.438 14.7C39 71.238 38.25 72.935 38.25 74.63c0 1.13.375 2.261.75 3.204l-7.313 7.161c-.937-.565-2.062-.754-3.187-.754-3.75 0-6.563 3.016-6.563 6.596 0 3.77 3 6.597 6.563 6.597 3.75 0 6.75-3.016 6.75-6.597 0-1.13-.375-2.261-.75-3.203l7.125-7.162c.938.565 2.063.754 3.188.754 3 0 5.624-2.073 6.374-4.712H68.25c.75 2.827 3.375 4.712 6.375 4.712 1.125 0 2.25-.377 3.188-.754l7.124 7.162c-.562.942-.75 2.073-.75 3.203 0 3.77 3 6.597 6.563 6.597 3.75 0 6.563-3.016 6.563-6.597 0-3.769-3-6.596-6.563-6.596-1.125 0-2.25.377-3.188.754l-6.937-6.973c.563-.942.75-2.073.75-3.204 0-1.696-.75-3.392-1.875-4.523l8.438-14.7c.562.189.937.189 1.5.189 3 0 5.624-2.073 6.374-4.9h10.876c.75 2.827 3.374 4.9 6.374 4.9 3.75 0 6.563-3.016 6.563-6.597 0-3.58-2.625-6.784-6.188-6.784zM6.561 52.015c-1.5 0-2.812-1.319-2.812-3.015 0-1.696 1.313-3.015 2.813-3.015 1.687 0 3 1.319 3 3.015 0 1.696-1.313 3.015-3 3.015zM91.126 3.958c1.688 0 2.813 1.319 2.813 2.827 0 1.696-1.313 2.827-2.813 2.827-1.5 0-3-1.131-3-2.827 0-1.508 1.313-2.827 3-2.827zM74.812 20.165c1.688 0 2.813 1.32 2.813 2.827 0 1.696-1.313 2.827-2.813 2.827-1.5 0-2.812-1.319-2.812-2.827 0-1.507 1.313-2.827 2.813-2.827zm-29.624 0c1.687 0 2.812 1.32 2.812 2.827 0 1.696-1.313 2.827-2.813 2.827-1.687 0-3-1.319-3-2.827 0-1.507 1.313-2.827 3-2.827zM26.061 6.785c0-1.697 1.313-2.827 2.813-2.827 1.688 0 3 1.319 3 2.827 0 1.696-1.313 2.827-3 2.827-1.5.188-2.813-1.131-2.813-2.827zM27.375 49c0-1.696 1.313-3.015 2.813-3.015 1.5 0 2.812 1.319 2.812 3.015 0 1.696-1.313 2.827-2.813 2.827-1.5 0-2.812-1.13-2.812-2.827zm1.5 45.042c-1.688 0-2.813-1.319-2.813-2.827 0-1.507 1.313-2.827 2.813-2.827 1.688 0 3 1.32 3 2.827 0 1.508-1.313 2.827-3 2.827zm16.313-16.207c-1.688 0-3-1.32-3-3.016s1.312-2.827 3-2.827c1.687 0 2.812 1.32 2.812 2.827 0 1.696-1.313 3.016-2.813 3.016zm23.25-4.9H51.374c-.75-2.827-3.375-4.9-6.375-4.9-.563 0-1.125 0-1.5.188l-8.438-14.7c1.126-1.13 1.876-2.827 1.876-4.523 0-1.696-.75-3.392-1.876-4.523l8.438-14.7c.563.188.938.188 1.5.188 3 0 5.625-2.073 6.375-4.711h17.063c.75 2.827 3.374 4.711 6.374 4.711.563 0 1.126 0 1.5-.188l8.438 14.7c-1.125 1.13-1.875 2.827-1.875 4.523 0 1.696.75 3.392 1.875 4.523l-8.438 14.7c-.562-.188-.937-.188-1.5-.188-3 .188-5.437 2.073-6.374 4.9zm6.374 4.9c-1.687 0-2.812-1.32-2.812-3.016s1.313-2.827 2.813-2.827c1.5 0 2.812 1.32 2.812 2.827.188 1.696-1.125 3.016-2.813 3.016zm19.126 13.38c0 1.697-1.313 2.827-2.813 2.827-1.5 0-3-1.319-3-2.827 0-1.507 1.313-2.827 2.813-2.827 1.5 0 3 1.131 3 2.827zm-4.313-39.2c-1.688 0-3-1.319-3-2.827 0-1.696 1.313-3.015 3-3.015 1.688 0 2.813 1.32 2.813 3.015.187 1.508-1.126 2.827-2.813 2.827zm23.813 0c-1.688 0-2.813-1.319-2.813-2.827 0-1.696 1.313-3.015 2.813-3.015 1.687 0 2.812 1.32 2.812 3.015 0 1.508-1.313 2.827-2.813 2.827z" id="Shape"/><path d="M79.875 48.058l-9.188-15.831c-.374-.565-.937-.942-1.687-.942H50.812c-.75 0-1.312.377-1.687.942l-9.188 15.83a1.72 1.72 0 0 0 0 1.885l9.188 15.831c.375.565.938.942 1.688.942H69c.75 0 1.313-.377 1.688-.942l9.187-15.83a1.72 1.72 0 0 0 0-1.885zM68.062 62.946H51.939L43.874 49l8.063-13.946h16.124L76.126 49l-8.063 13.946z" id="Shape"/></g></g></g></g></g></g></g></svg>