<svg width="120" height="120" viewBox="0 0 120 120" version="1.1" xmlns="http://www.w3.org/2000/svg"><g id="Home" stroke="none" stroke-width="1" fill="none" fill-rule="evenodd"><g id="AL_Home-Copy" transform="translate(-1457 -1735)" fill="currentColor" fill-rule="nonzero"><g id="Features" transform="translate(195 1665)"><g id="Icons"><g id="7" transform="translate(1123)"><g id="icon" transform="translate(139 70)"><g id="prism-(1)" transform="translate(0 23)"><path d="M119.155.794a2.336 2.336 0 0 0-1.89-.53L64.787 9.229l-2.642-4.571c-.884-1.53-3.173-1.53-4.056 0L41.298 33.71 1.67 50.215A2.323 2.323 0 0 0 .416 53.26c.469 1.114 1.903 1.731 3.06 1.25l33.98-14.153L20.43 69.82c-.864 1.493.234 3.487 2.027 3.487h75.322c1.763 0 2.905-1.968 2.027-3.487l-.694-1.202 17.91 5.067a2.418 2.418 0 0 0 2.05-.382c.585-.44.929-1.127.929-1.857V2.559c0-.706-.335-1.337-.845-1.765zm-3.833 26.723v6.337l-12.953.443-22.648.771-2.474-4.282 38.075-3.269zm-40.648-1.182l-2.386-4.129 43.034-5.696v6.335l-40.648 3.49zm10.015 17.329l-2.328-4.028 20.17-.688 12.79-.436v7.119L84.69 43.664zm30.633-38.345v6.496l-45.555 6.029-2.495-4.318 48.05-8.207zM26.5 68.653l2.69-4.655h21.57c1.29 0 2.34-1.045 2.34-2.327a2.336 2.336 0 0 0-2.34-2.327H31.88l28.237-48.859 28.237 48.86h-18.88a2.337 2.337 0 0 0-2.34 2.326 2.338 2.338 0 0 0 2.34 2.327h21.57l2.69 4.655H26.5zm88.822-.289l-19.554-5.53-2.845-4.922 22.399 4.126v6.326zm-25.46-15.75l-2.373-4.106 27.833 1.787v7.01l-25.46-4.691z" id="Shape"/><path d="M60.117 59.344a2.337 2.337 0 0 0-2.34 2.327 2.338 2.338 0 0 0 2.34 2.327c1.29 0 2.34-1.045 2.34-2.327a2.336 2.336 0 0 0-2.34-2.327z" id="Path"/></g></g></g></g></g></g></g></svg>