<svg width="120" height="120" viewBox="0 0 120 120" version="1.1" xmlns="http://www.w3.org/2000/svg"><g id="Home" stroke="none" stroke-width="1" fill="none" fill-rule="evenodd"><g id="AL_Home-Copy" transform="translate(-343 -1735)" fill="currentColor" fill-rule="nonzero"><g id="Features" transform="translate(195 1665)"><g id="Icons"><g id="1" transform="translate(9)"><g id="icon" transform="translate(139 70)"><g id="laser-(1)" transform="translate(10 10)"><path id="Path" d="M35.749 84.747l1.85-2.773 5 3.335-1.85 2.774zm4.531-7.156l2.773-1.85 3.334 5.001-2.774 1.85zm17.129 7.689l5-3.334 1.849 2.773-5 3.334zm-3.784-4.511l3.336-5 2.774 1.85-3.336 5z"/><path d="M0 0v11.667h30V15h10v25c.008.136.024.271.05.405l1.666 6.667a1.668 1.668 0 0 0 1.617 1.261H45v5c0 .92.746 1.667 1.667 1.667h1.666v35H10v10h80V90H51.667V55h1.666c.92 0 1.667-.746 1.667-1.667v-5h1.667c.764 0 1.43-.52 1.617-1.261l1.666-6.667A3.09 3.09 0 0 0 60 40V15h10v-3.333h30V0H0zm30 8.333H3.333v-5H30v5zm56.667 85v3.334H13.333v-3.334h73.334zm-35-41.666h-3.334v-3.334h3.334v3.334zM55.365 45h-10.73l-.834-3.333H56.2L55.365 45zm1.302-6.667H43.333V35h10v-3.333h-10v-3.334h5V25h-5V15h13.334v23.333zm10-26.666H33.333V3.333h33.334v8.334zm30-3.334H70v-5h26.667v5z" id="Shape"/></g></g></g></g></g></g></g></svg>