<svg width="120" height="120" viewBox="0 0 120 120" version="1.1" xmlns="http://www.w3.org/2000/svg"><g id="Home" stroke="none" stroke-width="1" fill="none" fill-rule="evenodd"><g id="AL_Home-Copy" transform="translate(-900 -2445)" fill="currentColor" fill-rule="nonzero"><g id="Features" transform="translate(195 1665)"><g id="Icons"><g id="5" transform="translate(557 710)"><g id="icon" transform="translate(148 70)"><g id="avatar-(1)" transform="translate(10 10)"><path d="M25.83 36.709a5.906 5.906 0 0 0 4.506-.592 5.932 5.932 0 0 0 2.87-6.212l3.735-2.063a7.1 7.1 0 0 0 4.865 1.925 7.1 7.1 0 0 0 4.946-2.002l3.028 1.744a6.625 6.625 0 0 0 3.148 7.207 6.607 6.607 0 0 0 5.033.66 6.586 6.586 0 0 0 4.026-3.083 6.567 6.567 0 0 0 .663-5.023 6.579 6.579 0 0 0-3.09-4.019 6.599 6.599 0 0 0-5.032-.66 6.604 6.604 0 0 0-2.798 1.54l-3.02-1.74a7.089 7.089 0 0 0 .213-1.728c0-3.24-2.187-5.98-5.165-6.83V11.62c2.318-.808 3.986-3.01 3.986-5.595 0-3.269-2.664-5.928-5.938-5.928-3.275 0-5.939 2.66-5.939 5.928 0 2.585 1.668 4.787 3.986 5.595v4.214c-2.978.85-5.164 3.59-5.164 6.83 0 .634.084 1.248.241 1.833l-3.658 2.02a5.918 5.918 0 0 0-2.368-1.258 5.908 5.908 0 0 0-4.506.592 5.891 5.891 0 0 0-2.766 3.599 5.876 5.876 0 0 0 .592 4.497 5.898 5.898 0 0 0 3.606 2.762zm28.054-7.085a2.709 2.709 0 0 1 1.655-1.268 2.713 2.713 0 0 1 2.068.272c.631.364 1.082.95 1.27 1.652a2.698 2.698 0 0 1-.272 2.064 2.706 2.706 0 0 1-1.655 1.268 2.722 2.722 0 0 1-3.065-3.988zM41.806 3.996c1.12 0 2.033.91 2.033 2.029a2.033 2.033 0 0 1-4.065 0c0-1.12.911-2.029 2.032-2.029zm0 15.463a3.212 3.212 0 0 1 3.211 3.205 3.212 3.212 0 0 1-6.422 0 3.212 3.212 0 0 1 3.211-3.205zm-16.402 11c.14-.523.476-.961.947-1.231a2.022 2.022 0 0 1 1.542-.204 2.029 2.029 0 1 1-1.052 3.92 2.015 2.015 0 0 1-1.234-.946 2.01 2.01 0 0 1-.203-1.54z" id="Shape"/><path d="M39.853 37v16.894c0 1.076.874 1.95 1.953 1.95a1.951 1.951 0 0 0 1.952-1.95V37a1.95 1.95 0 0 0-1.952-1.948A1.95 1.95 0 0 0 39.853 37z" id="Path"/><path d="M91.042 53.088c2.573-2.025 4.23-5.16 4.23-8.677V27.8c0-5.117-4.17-9.28-9.297-9.28H74.166c-3.093 0-5.609 2.511-5.609 5.598v4.116c0 3.381 1.845 6.34 4.581 7.929v8.248c0 3.538 1.678 6.69 4.279 8.714a15.67 15.67 0 0 0-8.627 11.409l-3.43 19.458H55a1.952 1.952 0 0 0-1.952 1.95v2.319a8.305 8.305 0 0 0-4.824 3.29 9.75 9.75 0 0 0-7.361-3.352H22.278a1.951 1.951 0 0 0-1.953 1.95v5.847H8.886c-2.746 0-4.98-2.23-4.98-4.97v-24.83a4.98 4.98 0 0 1 3.787-4.825v20.32c0 3.225 2.629 5.849 5.86 5.849 3.23 0 5.858-2.624 5.858-5.848V67.073a1.95 1.95 0 0 0-1.953-1.949 1.951 1.951 0 0 0-1.953 1.95v14.618a1.953 1.953 0 0 1-3.906 0V38.736a1.954 1.954 0 0 1 3.906 0V51.48a1.95 1.95 0 0 0 1.953 1.949 1.95 1.95 0 0 0 1.953-1.949V38.736c0-3.225-2.629-5.848-5.859-5.848s-5.859 2.623-5.859 5.848V57.41C3.355 57.993 0 61.71 0 66.196v24.83c0 4.89 3.986 8.868 8.886 8.868h89.16a1.952 1.952 0 0 0 1.954-1.95V67.252c0-6.237-3.665-11.635-8.958-14.163zm-18.58-28.97c0-.937.764-1.7 1.704-1.7h11.809c2.973 0 5.392 2.414 5.392 5.382v5.705H77.744c-2.912 0-5.282-2.364-5.282-5.271v-4.116zm4.582 13.286h14.323v7.007c0 3.94-3.213 7.147-7.161 7.147-3.95 0-7.162-3.207-7.162-7.147v-7.007zm-50.31 58.592H24.23v-3.898h16.633a5.867 5.867 0 0 1 5.524 3.898H26.733zm26.315-3.611v3.61h-2.41a4.372 4.372 0 0 1 2.41-3.61zm43.045 3.61H78.223a9.872 9.872 0 0 0 1.722-3.555l4.274-16.737a1.953 1.953 0 0 0-3.785-.962L76.16 91.477a6.006 6.006 0 0 1-5.825 4.518h-13.38V87.89h10.046c.948 0 1.76-.68 1.924-1.612l3.711-21.07a11.793 11.793 0 0 1 11.64-9.752c6.517 0 11.819 5.29 11.819 11.794v28.745h-.001z" id="Shape"/><path d="M17.458 57.328a1.97 1.97 0 0 0-1.381.57 1.964 1.964 0 0 0-.573 1.377c0 .513.21 1.016.573 1.38.363.363.867.57 1.38.57a1.97 1.97 0 0 0 1.382-.57c.363-.364.572-.865.572-1.38 0-.512-.21-1.015-.572-1.377a1.965 1.965 0 0 0-1.381-.57z" id="Path"/></g></g></g></g></g></g></g></svg>