<svg width="120" height="120" viewBox="0 0 120 120" version="1.1" xmlns="http://www.w3.org/2000/svg"><g id="Home" stroke="none" stroke-width="1" fill="none" fill-rule="evenodd"><g id="AL_Home-Copy" transform="translate(-1457 -2445)" fill="currentColor" fill-rule="nonzero" stroke="currentColor" stroke-width=".3"><g id="Features" transform="translate(195 1665)"><g id="Icons"><g id="3" transform="translate(1123 710)"><g id="icon" transform="translate(139 70)"><g id="molecular" transform="translate(10 10)"><path id="Path" d="M89.258 68.19l5.818 3.375v16.7l-14.38 8.342-14.377-8.343V71.565l14.378-8.343 6.023 3.495 1.473-2.539-7.496-4.35-15.846 9.196-14.379-8.344V42.291l-6.822-3.959-1.472 2.539 5.36 3.11v16.7l-14.38 8.343-14.377-8.344V43.981l14.378-8.343 6.48 3.76 1.473-2.538-6.486-3.764V14.708L17.313 4.662 0 14.708v8.416h2.934v-6.727l14.38-8.343 14.378 8.343v16.7L17.313 41.44 2.934 33.097v-7.039H0v8.728l15.846 9.195v16.7L0 69.874v20.08l6.603 3.83 1.473-2.537-5.142-2.984V71.565l14.38-8.343 14.378 8.343v16.7l-14.379 8.342-6.699-3.887-1.472 2.538L17.313 100l15.846-9.195 6.42 3.726 1.473-2.538-6.426-3.73V71.566l14.38-8.343 14.378 8.343v16.699l-14.379 8.343-5.414-3.142-1.473 2.539L49.005 100l15.846-9.195L80.697 100 98.01 89.954V69.875l-7.279-4.224z"/><path d="M47.832 25.627c3.357 0 6.254-2.001 7.565-4.873l6.78 1.621a12.287 12.287 0 0 0-.162 1.981c0 4.228 2.157 7.96 5.427 10.157l-2.33 3.145a8.274 8.274 0 0 0-2.804-.488c-4.585 0-8.314 3.73-8.314 8.314 0 4.585 3.73 8.314 8.314 8.314s8.314-3.73 8.314-8.314a8.299 8.299 0 0 0-2.952-6.347l2.427-3.279c1.295.469 2.69.725 4.145.725 6.741 0 12.227-5.485 12.227-12.227 0-2.374-.683-4.59-1.859-6.468l2.714-2.478a8.262 8.262 0 0 0 4.329 1.218c4.584 0 8.313-3.729 8.313-8.313C99.966 3.73 96.237 0 91.653 0c-4.586 0-8.315 3.73-8.315 8.315a8.27 8.27 0 0 0 1.782 5.133L82.764 15.6a12.185 12.185 0 0 0-8.522-3.47c-5.039 0-9.375 3.062-11.244 7.425l-6.876-1.644a8.16 8.16 0 0 0 .023-.598C56.145 12.73 52.416 9 47.832 9c-4.585 0-8.315 3.73-8.315 8.314 0 4.585 3.73 8.314 8.315 8.314h0zm43.82-22.693a5.386 5.386 0 0 1 5.38 5.38 5.386 5.386 0 0 1-5.38 5.38 5.386 5.386 0 0 1-5.38-5.38 5.386 5.386 0 0 1 5.38-5.38zm-23.964 42.55a5.386 5.386 0 0 1-5.38 5.38 5.386 5.386 0 0 1-5.38-5.38 5.386 5.386 0 0 1 5.38-5.38 5.386 5.386 0 0 1 5.38 5.38zm6.554-30.42c5.123 0 9.291 4.168 9.291 9.292 0 5.123-4.168 9.292-9.291 9.292-5.124 0-9.293-4.169-9.293-9.292 0-5.124 4.169-9.293 9.293-9.293h0zm-26.41-3.13a5.386 5.386 0 0 1 5.38 5.38 5.386 5.386 0 0 1-5.38 5.379 5.386 5.386 0 0 1-5.38-5.38 5.386 5.386 0 0 1 5.38-5.38h0z" id="Shape"/><path id="Path" d="M59.72 86.998l-1.474-2.538-9.24 5.362-4.165-2.417-1.473 2.539 5.637 3.27zm-21.43.003l1.472-2.538 2.538 1.473-1.473 2.538zm53.852-1.271V73.254l-5.632-3.268-1.473 2.539 4.17 2.42v10.783zM79.96 69.585l1.473-2.538 2.538 1.473-1.473 2.538zM6.596 87l1.474-2.537 4.9 2.843-1.473 2.539zm7.439 4.318l1.473-2.538 2.539 1.473-1.474 2.538zm-8.166-63.69h2.935v2.934H5.869zm0-8.696h2.935v5.76H5.869zM32.422 42l1.473-2.54 2.538 1.473-1.473 2.539zm12.182 16.145V45.671l-5.632-3.268-1.473 2.539 4.17 2.419v10.784zm33.061-33.789h2.934a6.365 6.365 0 0 0-6.357-6.358v2.934a3.428 3.428 0 0 1 3.423 3.424h0z"/></g></g></g></g></g></g></g></svg>