<svg width="120" height="120" viewBox="0 0 120 120" version="1.1" xmlns="http://www.w3.org/2000/svg"><g id="Home" stroke="none" stroke-width="1" fill="none" fill-rule="evenodd"><g id="AL_Home-Copy" transform="translate(-1457 -3155)" fill="currentColor" fill-rule="nonzero"><g id="Features" transform="translate(195 1665)"><g id="Icons"><g id="2" transform="translate(1123 1420)"><g id="icon" transform="translate(139 70)"><g id="laser" transform="translate(10 8)"><path d="M29.879 67.677c0 .85-.694 1.538-1.55 1.538a1.543 1.543 0 0 1-1.548-1.538c0-.85.693-1.539 1.549-1.539.855 0 1.549.69 1.549 1.539z" id="Path"/><path d="M85.172 72.014h-3.773c-.855 0-1.549.688-1.549 1.538 0 .849.694 1.538 1.55 1.538h3.772c6.987 0 12.67 5.643 12.67 12.58v14.254H83.838v-3.21c0-.85-.693-1.537-1.55-1.537-.855 0-1.548.688-1.548 1.538v3.209H20.13v-9.775a2.955 2.955 0 0 0 1.92-1.398l1.741-2.995a1.531 1.531 0 0 0-.567-2.1 1.555 1.555 0 0 0-2.116.562l-1.675 2.88-5.34-3.061 13.484-23.192 5.342 3.062-8.196 14.095a1.533 1.533 0 0 0 .566 2.101 1.557 1.557 0 0 0 2.117-.563l3.75-6.45h1.706c.35 4.113 2.127 7.934 5.098 10.889 6.91 6.873 18.108 6.874 25.02 0 2.971-2.955 4.747-6.776 5.098-10.89h6.091c.856 0 1.55-.688 1.55-1.537 0-.85-.694-1.538-1.55-1.538h-9.595a.485.485 0 0 1-.486-.483v-7.34c5.271-3.781 9.479-9.207 9.95-15.557l.092-1.242c5.724-.363 10.27-5.1 10.27-10.874v-.55c0-3.625-2.97-6.574-6.62-6.574h-.535a3.263 3.263 0 0 0-1.63-2.014C76.78 11.658 64.57 0 50.47 0 36.383 0 24.159 11.64 25.327 27.38a3.264 3.264 0 0 0-1.632 2.014h-.535c-3.65 0-6.619 2.95-6.619 6.573v.55c0 5.775 4.546 10.512 10.27 10.875.225 3.041.564 5.541 2.646 9.012l-2.79 3.447a2.941 2.941 0 0 0-1.705 1.342l-6.292 10.82h-2.9C7.073 72.014 0 79.039 0 87.672v15.79c0 .85.694 1.539 1.55 1.539h97.842c.856 0 1.55-.688 1.55-1.538V87.67c0-8.633-7.075-15.657-15.77-15.657h0zm-39.14-26.096c2.887 5.366-1.013 12.034-7.282 12.037a2.9 2.9 0 0 0-1.278-2.924l2.615-4.498a1.533 1.533 0 0 0-.567-2.1 1.555 1.555 0 0 0-2.116.562l-2.616 4.498a2.944 2.944 0 0 0-3.19.362 8.126 8.126 0 0 1-.274-7.664c13.848 0 13.526.11 14.708-.273h0zm-12.52 10.386c1.166.67-1.827-1.047 2.146 1.23l-2.042 5.22-3.636-2.084 3.532-4.366zm2.157 11.027c.39-.672.48-1.434.316-2.136l.5-1.276c.122.09.244.178.368.266v7.346a.484.484 0 0 1-.486.483h-3.42l2.722-4.683zm28.905 7.759h.395a14.32 14.32 0 0 1-4.181 8.716c-8.794 8.747-23.583 3.164-24.815-8.716h.394c1.977 0 3.585-1.597 3.585-3.56v-5.383c3.654 2.041 7.523 3.302 10.519 3.302 3.001 0 6.852-1.235 10.52-3.29v5.372c0 1.962 1.607 3.559 3.583 3.559zm-1.74-13.804c-3.33 2.512-8.448 5.087-12.363 5.087-3.014 0-8.231-1.848-12.76-5.391 9.229.83 15.398-9.04 10.88-16.825.679-.841.926-1.583 1.134-2.487.18-.786 1.31-.786 1.491 0l.067.29c.57 2.491 2.766 4.23 5.34 4.23h14.49l-.164 2.218c-.463 6.23-5.283 10.743-8.115 12.878zm18.468-25.319v.55c0 3.244-1.997 6.032-4.835 7.216.567-.856.898-1.88.898-2.979V32.47h.416c1.942 0 3.521 1.569 3.521 3.497zM34.244 10.1c8.722-9.321 23.634-9.425 32.454 0 4.143 4.429 6.338 10.177 5.838 16.907H39.67c-.855 0-1.549.688-1.549 1.538 0 .85.694 1.538 1.55 1.538 36.738 0 34.596-.095 34.596.172v10.5a2.371 2.371 0 0 1-2.377 2.36H56.622a2.363 2.363 0 0 1-2.319-1.836l-.066-.291a3.838 3.838 0 0 0-3.767-2.984 3.837 3.837 0 0 0-3.766 2.984c-.19.83-.378 1.222-1.042 1.716-.308.229-.815.411-1.343.411H29.051a2.372 2.372 0 0 1-2.377-2.36v-10.5c0-.095.077-.172.172-.172h5.595c.856 0 1.55-.689 1.55-1.538 0-.85-.694-1.538-1.55-1.538h-4.036c-.497-6.704 1.676-12.458 5.84-16.907zM19.64 36.518v-.55c0-1.929 1.58-3.498 3.521-3.498h.416v8.284c0 1.1.33 2.123.899 2.979-2.838-1.184-4.836-3.973-4.836-7.215zm-4.072 53.916l1.466.84v10.53h-1.466v-11.37zM3.098 87.67c0-6.938 5.684-12.581 12.671-12.581h1.112l-5.538 9.523c-.785 1.35-.408 3.165 1.125 4.044v13.267h-9.37V87.67z" id="Shape" stroke="#596975" stroke-width=".525"/></g></g></g></g></g></g></g></svg>