<svg width="120" height="120" viewBox="0 0 120 120" version="1.1" xmlns="http://www.w3.org/2000/svg"><g id="Home" stroke="none" stroke-width="1" fill="none" fill-rule="evenodd"><g id="AL_Home-Copy" transform="translate(-900 -1735)" fill="currentColor" fill-rule="nonzero"><g id="Features" transform="translate(195 1665)"><g id="Icons"><g id="8" transform="translate(566)"><g id="icon" transform="translate(139 70)"><g id="healthcare-and-medical" transform="translate(5 5)"><path d="M83.696 19.13c-1.132 0-2.246.07-3.336.21C77.273 8.005 66.964 0 55 0 43.036 0 32.727 8.004 29.64 19.34a25.965 25.965 0 0 0-3.336-.21C11.801 19.13 0 30.932 0 45.435c0 8.582 4.233 16.615 11.187 21.498a16.619 16.619 0 0 0-1.622 7.197c0 9.228 7.51 16.74 16.74 16.74 4.68 0 8.917-1.93 11.956-5.034v19.381H21.52a2.39 2.39 0 1 0 0 4.783h66.957a2.39 2.39 0 1 0 0-4.783H71.74V85.836a16.693 16.693 0 0 0 11.957 5.034c9.23 0 16.739-7.512 16.739-16.74a16.5 16.5 0 0 0-1.622-7.178C105.767 62.05 110 54.008 110 45.435c0-14.503-11.801-26.305-26.304-26.305zM94.41 64.095l-.005.002a21.41 21.41 0 0 1-10.71 2.86 2.39 2.39 0 1 0 0 4.782c3.79 0 7.509-.86 10.92-2.425a11.754 11.754 0 0 1 1.036 4.816c0 6.593-5.364 11.957-11.956 11.957-6.593 0-11.957-5.364-11.957-11.957V59.783c0-3.955 3.22-7.174 7.174-7.174a2.39 2.39 0 1 0 0-4.783c-6.592 0-11.956 5.364-11.956 11.957v45.434H57.39V40.652a2.39 2.39 0 1 0-4.782 0v64.565h-9.566V59.783c0-6.593-5.364-11.957-11.956-11.957a2.39 2.39 0 1 0 0 4.783c3.955 0 7.174 3.219 7.174 7.174V74.13c0 6.593-5.364 11.957-11.957 11.957-6.592 0-11.956-5.364-11.956-11.957 0-1.688.358-3.326 1.029-4.832 3.404 1.574 7.126 2.441 10.927 2.441a2.39 2.39 0 1 0 0-4.782A21.23 21.23 0 0 1 15.6 64.079c-.003-.002-.007-.002-.01-.002-.002-.002-.004-.005-.007-.005-6.661-3.824-10.8-10.964-10.8-18.637 0-11.868 9.656-21.522 21.521-21.522.847 0 1.677.055 2.492.15-.062.73-.1 1.477-.1 2.241v4.783a2.39 2.39 0 1 0 4.782 0v-4.783c0-1.33.115-2.592.34-3.751.002-.007-.002-.013 0-.02 0-.007.007-.012.007-.019C35.648 12.24 44.552 4.783 55 4.783s19.352 7.456 21.175 17.731c0 .007.007.012.007.019 0 .007-.002.013 0 .02.225 1.16.34 2.421.34 3.751v4.783a2.39 2.39 0 1 0 4.782 0v-4.783c0-.764-.038-1.51-.1-2.24a21.27 21.27 0 0 1 2.492-.151c11.865 0 21.521 9.654 21.521 21.522 0 7.666-4.141 14.813-10.806 18.66z" id="Shape"/></g></g></g></g></g></g></g></svg>