<svg width="120" height="120" viewBox="0 0 120 120" version="1.1" xmlns="http://www.w3.org/2000/svg"><g id="Home" stroke="none" stroke-width="1" fill="none" fill-rule="evenodd"><g id="AL_Home-Copy" transform="translate(-343 -2445)" fill="currentColor" fill-rule="nonzero"><g id="Features" transform="translate(195 1665)"><g id="Icons"><g id="4" transform="translate(9 710)"><g id="icon" transform="translate(139 70)"><g id="plasma" transform="translate(8 8)"><path d="M52 94.11a2.152 2.152 0 0 0-2.148 2.148c0 1.184.964 2.148 2.148 2.148a2.152 2.152 0 0 0 2.148-2.148A2.152 2.152 0 0 0 52 94.109zm0-34.376a2.15 2.15 0 1 0 .002 4.299A2.15 2.15 0 0 0 52 59.734zm0 8.594a2.15 2.15 0 1 0 .002 4.299A2.15 2.15 0 0 0 52 68.328z" id="Path"/><path d="M100.644 9.357c-3.003-3.17-7.17-4.845-12.05-4.845-5.08 0-7.816.937-10.231 1.764-2.056.704-3.83 1.312-6.996 1.312-2.9 0-4.177-1.46-5.796-3.307C63.901 2.374 61.822 0 57.832 0c-4.071 0-7.383 3.312-7.383 7.383v3.281h-4.101a2.05 2.05 0 0 0-2.051 2.05v6.153H2.05A2.05 2.05 0 0 0 0 20.918v82.031A2.05 2.05 0 0 0 2.05 105h100.9a2.05 2.05 0 0 0 2.05-2.05V20.917c0-4.49-1.547-8.596-4.356-11.561zM54.551 7.383a3.285 3.285 0 0 1 3.281-3.281c2.035 0 2.995.988 4.654 2.881 1.836 2.097 4.122 4.706 8.881 4.706 3.848 0 6.124-.779 8.325-1.533 2.317-.793 4.505-1.543 8.902-1.543 7.548 0 11.39 4.874 12.157 10.254H60.703v-6.152a2.05 2.05 0 0 0-2.05-2.05H54.55V7.382zm-6.153 7.383h8.204v4.101h-8.204v-4.101zm6.153 8.203v4.101h-4.102v-4.1h4.102zm-6.153 8.203h14.356v4.101H42.247v-4.101h6.151zm36.914 45.117H19.689a2.05 2.05 0 0 0-2.051 2.05v6.153h-5.332v-53.32h25.84v6.152a2.05 2.05 0 0 0 2.05 2.051h2.051v6.152a2.05 2.05 0 0 0 2.05 2.051h6.153v6.152a2.05 2.05 0 1 0 4.102 0v-6.152h6.152a2.05 2.05 0 0 0 2.05-2.05v-6.153h2.052a2.05 2.05 0 0 0 2.05-2.05v-6.153h25.84v53.32h-5.332V78.34a2.05 2.05 0 0 0-2.05-2.05zm-2.05 4.102v4.101H21.738v-4.101h61.524zM46.348 43.477v-4.102h12.304v4.102H46.348zM4.102 22.969h42.246v4.101H10.254a2.05 2.05 0 0 0-2.05 2.051v55.371H4.101V22.97zm16.406 77.93H4.102v-4.102h16.406v4.101zm80.39 0H84.492v-4.102h16.406v4.101zm0-8.204H60.703c-1.13 0-2.05.921-2.05 2.051 0 1.13.92 2.05 2.05 2.05h19.688v4.102H24.609v-4.101h19.688c1.13 0 2.05-.92 2.05-2.05s-.92-2.052-2.05-2.052H4.102v-4.101h96.796v4.101zm0-8.203h-4.101v-55.37a2.05 2.05 0 0 0-2.05-2.052H58.651v-4.1h42.246v61.523z" id="Shape"/></g></g></g></g></g></g></g></svg>