<svg width="120" height="120" viewBox="0 0 120 120" version="1.1" xmlns="http://www.w3.org/2000/svg"><g id="Home" stroke="none" stroke-width="1" fill="none" fill-rule="evenodd"><g id="AL_Home-Copy" transform="translate(-343 -3155)" fill="currentColor" fill-rule="nonzero"><g id="Features" transform="translate(195 1665)"><g id="Icons"><g id="9" transform="translate(0 1420)"><g id="icon" transform="translate(148 70)"><g id="noun_atom_205712" transform="translate(5 5)"><path d="M101.364 50.844c-6.71-5.377-16.711-10.51-28.055-14.422-1.22-.366-2.562.245-2.928 1.467-.366 1.222.244 2.567 1.464 2.933 10.856 3.79 20.37 8.556 26.591 13.69 5.855 4.766 8.539 9.288 7.685 12.71-.732 2.934-4.147 5.378-9.636 6.845-1.22.366-1.952 1.589-1.586 2.933.244 1.1 1.22 1.711 2.196 1.711.243 0 .365 0 .61-.122 5.122-1.345 11.465-4.278 12.93-10.267.975-3.789.121-9.9-9.271-17.478zM5.367 41.922c.488-1.955 2.074-3.666 4.88-5.01 2.927-1.468 7.074-2.568 12.075-3.179 1.342-.122 2.196-1.344 2.074-2.566-.122-1.345-1.342-2.2-2.562-2.078-5.61.611-10.124 1.833-13.661 3.667-4.026 2.077-6.465 4.766-7.197 8.066-1.464 6.111 2.927 11.734 6.953 15.522.487.367.975.612 1.585.612s1.22-.245 1.708-.734c.854-.978.854-2.444-.122-3.3-2.684-2.322-6.709-6.844-5.733-11z" id="Path"/><path d="M77.212 47.911c-.366-1.222-1.708-1.955-2.927-1.589-1.22.367-1.952 1.711-1.586 2.934.244.855.488 1.71.854 2.688 3.781 13.078 5.489 25.912 4.879 35.934-.61 9.166-3.172 15.155-7.197 16.378-1.951.61-4.27.122-6.83-1.467-2.806-1.711-5.856-4.767-8.905-8.678-6.465-8.433-12.442-20.533-16.711-34.222-.976-3.178-1.83-6.478-2.684-9.533 1.952-2.567 4.148-5.134 6.343-7.578 9.515-10.634 19.883-19.19 29.397-24.078 4.391-2.322 8.417-3.789 11.71-4.156 3.05-.366 5.367.123 6.83 1.467 1.464 1.345 2.196 3.545 2.196 6.6 0 3.3-.976 7.456-2.805 12.1-.488 1.222.122 2.567 1.342 3.056 1.22.489 2.561-.123 3.049-1.345 2.074-5.255 3.171-9.9 3.171-13.81 0-4.523-1.22-7.945-3.78-10.145-2.562-2.323-6.1-3.178-10.491-2.69-3.903.49-8.416 2.079-13.296 4.645C59.891 19.678 48.913 28.6 39.155 39.6a79.647 79.647 0 0 0-4.147 4.889c-1.464-8.067-2.196-15.522-1.83-22.122.244-5.011 1.098-9.167 2.44-12.223 1.22-2.81 2.805-4.522 4.757-5.133 4.025-1.222 8.66 2.567 11.222 5.011.976.856 2.44.856 3.293-.122.854-.978.854-2.444-.122-3.3C47.693-.244 42.204-.489 38.911.611c-3.293.978-5.855 3.667-7.685 7.7-1.585 3.545-2.561 8.311-2.805 13.811-.366 7.945.488 17.356 2.683 27.134-6.099 8.066-10.856 16.133-13.783 23.588-2.074 5.256-3.172 9.9-3.172 13.812 0 4.522 1.22 7.944 3.782 10.144 1.585 1.467 4.147 2.811 8.172 2.811 2.44 0 5.49-.489 9.149-1.833a2.517 2.517 0 0 0 1.463-3.056 2.51 2.51 0 0 0-3.05-1.466c-5.732 2.077-10.245 2.077-12.563 0-1.464-1.345-2.195-3.545-2.195-6.6 0-3.3.975-7.456 2.805-12.1 2.44-6.112 6.099-12.712 10.856-19.312.488 2.078 1.098 4.034 1.83 6.112C38.789 75.41 45.01 88.122 51.84 97.044c3.415 4.4 6.83 7.7 10.246 9.778 2.683 1.59 5.245 2.445 7.562 2.445 1.098 0 2.074-.123 3.05-.49 3.171-.977 5.733-3.421 7.44-7.333 1.586-3.422 2.562-7.822 2.928-13.2.732-10.633-1.098-23.955-5.001-37.522-.366-.978-.61-1.955-.854-2.81z" id="Path"/><ellipse id="Oval" cx="47.449" cy="56.467" rx="2.074" ry="2.078"/><ellipse id="Oval" cx="59.769" cy="48.033" rx="2.318" ry="2.322"/><ellipse id="Oval" cx="59.769" cy="62.333" rx="3.415" ry="3.422"/></g></g></g></g></g></g></g></svg>