<svg width="20" height="20" viewBox="0 0 20 20" version="1.1" xmlns="http://www.w3.org/2000/svg"><g id="Product" stroke="none" stroke-width="1" fill="none" fill-rule="evenodd"><g id="AL_Product-Copy" transform="translate(-1452 -776)" fill="currentColor" fill-rule="nonzero"><g id="Hero" transform="translate(149 28)"><g id="Product" transform="translate(0 104)"><g id="Content" transform="translate(975 122)"><g id="3" transform="translate(0 458)"><g id="Downloads-Copy" transform="translate(13 64)"><g id="3" transform="translate(317)"><g id="study" transform="translate(0 2)"><path d="M15.816 11.04l-3.174-3.161 2.42-2.414A3.18 3.18 0 0 0 16 3.201a3.18 3.18 0 0 0-.938-2.263A3.18 3.18 0 0 0 12.8 0a3.18 3.18 0 0 0-2.264.938L8.127 3.346 4.951.182a.624.624 0 0 0-.885.003L.18 4.108a.625.625 0 0 0 .003.883l3.155 3.142-1.75 1.751a.625.625 0 0 0-.16.275L.022 15.207a.625.625 0 0 0 .773.77l5.048-1.435a.625.625 0 0 0 .272-1.042l-3.183-3.193 7.416-7.416 2.759 2.758-5.678 5.662a.625.625 0 0 0 .001.886l3.649 3.622a.625.625 0 0 0 .44.181h.003a.625.625 0 0 0 .441-.185l3.855-3.893a.625.625 0 0 0-.003-.882zM4.481 13.63l-2.955.84.827-2.974 2.128 2.134zm-.258-6.38L1.508 4.544 4.513 1.51l.991.988-1.23 1.251a.625.625 0 0 0 .89.877L6.39 3.38l.853.85-3.02 3.02zm7.01-5.243l.186-.185a1.938 1.938 0 0 1 1.38-.572c.52 0 1.01.203 1.38.572.368.368.571.858.571 1.38 0 .52-.203 1.01-.571 1.378l-.186.186-2.76-2.759zm.284 12.484l-2.76-2.739 3-2.99.843.84-1.2 1.208a.625.625 0 0 0 .887.88l1.199-1.207 1.006 1.003-2.975 3.005z" id="Shape"/></g></g></g></g></g></g></g></g></g></svg>