<svg width="20" height="20" viewBox="0 0 20 20" version="1.1" xmlns="http://www.w3.org/2000/svg"><g id="Product" stroke="none" stroke-width="1" fill="none" fill-rule="evenodd"><g id="AL_Product-Copy" transform="translate(-1137 -776)" fill="currentColor" fill-rule="nonzero"><g id="Hero" transform="translate(149 28)"><g id="Product" transform="translate(0 104)"><g id="Content" transform="translate(975 122)"><g id="3" transform="translate(0 458)"><g id="Downloads-Copy" transform="translate(13 64)"><g id="1" transform="translate(2)"><g id="open-book" transform="translate(0 3)"><path d="M15.375 5.947a.622.622 0 0 0 .625-.62V.62a.618.618 0 0 0-.249-.494.63.63 0 0 0-.549-.1c-.723.205-1.646.147-2.814.073A37.725 37.725 0 0 0 9.875 0C9.129 0 8.458.326 8 .842A2.504 2.504 0 0 0 6.125 0c-.952 0-1.781.052-2.513.098C2.444.172 1.522.23.798.024a.63.63 0 0 0-.549.1A.618.618 0 0 0 0 .62v10.277a2.45 2.45 0 0 0 .73 1.757 2.496 2.496 0 0 0 1.77.728h4.875c0 .342.28.619.625.619a.622.622 0 0 0 .625-.62H13.5c1.379 0 2.5-1.111 2.5-2.477V8.425c0-.342-.28-.62-.625-.62a.622.622 0 0 0-.625.62c0 .683-.56 1.239-1.25 1.239H8.937c-.106 0-.211.01-.312.03V2.479c0-.683.56-1.24 1.25-1.24.912 0 1.72.052 2.433.097.933.059 1.723.108 2.442.031v3.961c0 .343.28.62.625.62zm-8 6.195H2.5a1.247 1.247 0 0 1-1.25-1.244v-.329a2.5 2.5 0 0 0 1.25.334h4.563c.172 0 .312.139.312.31v.929zm0-2.447a1.576 1.576 0 0 0-.313-.031H2.5c-.69 0-1.25-.556-1.25-1.24V1.367c.719.077 1.51.028 2.442-.031.713-.045 1.52-.096 2.433-.096.69 0 1.25.556 1.25 1.239v7.217zm1.563 1.208H13.5a2.5 2.5 0 0 0 1.25-.334v.334c0 .683-.56 1.239-1.25 1.239H8.625v-.93c0-.17.14-.31.313-.31z" id="Shape"/></g></g></g></g></g></g></g></g></g></svg>