<svg width="20" height="20" viewBox="0 0 20 20" version="1.1" xmlns="http://www.w3.org/2000/svg"><g id="Product" stroke="none" stroke-width="1" fill="none" fill-rule="evenodd"><g id="AL_Product-Copy" transform="translate(-1659 -776)" fill="currentColor" fill-rule="nonzero" stroke="#ED3D4A" stroke-width=".1"><g id="Hero" transform="translate(149 28)"><g id="Product" transform="translate(0 104)"><g id="Content" transform="translate(975 122)"><g id="3" transform="translate(0 458)"><g id="Downloads-Copy" transform="translate(13 64)"><g id="4" transform="translate(523)"><g id="360-degree" transform="translate(0 2)"><path d="M13.79 10.378l1.009-.536a.538.538 0 0 0 .283-.476V3.48l-.001-.03a.538.538 0 0 0-.282-.446L9.263.06a.52.52 0 0 0-.488 0L3.239 3.004a.537.537 0 0 0-.283.476l.001 5.915a.54.54 0 0 0 .282.447l1 .53C2.346 10.719 0 11.433 0 12.85c0 1.52 2.672 2.23 4.66 2.55l-.89.622a.543.543 0 0 0-.135.746.524.524 0 0 0 .733.139l2.048-1.433a.544.544 0 0 0 .111-.78l-1.564-1.969a.521.521 0 0 0-.742-.08.543.543 0 0 0-.078.756l.756.952c-2.903-.45-3.844-1.233-3.844-1.503 0-.292 1.136-1.214 4.782-1.626l2.938 1.562a.52.52 0 0 0 .488 0l2.932-1.559c3.621.415 4.75 1.333 4.75 1.623 0 .136-.352.625-1.918 1.085-1.44.422-3.398.674-5.513.71a.533.533 0 0 0-.519.546c.005.293.24.528.527.528h.01c2.205-.038 4.26-.305 5.787-.753C17.098 14.444 18 13.732 18 12.85c0-1.41-2.326-2.124-4.21-2.47h0zM4.621 9.366l3.87-2.057v4.114l-3.87-2.057zm-.611-5l3.87 2.057L4.01 8.48V4.366zM14.027 8.48l-3.869-2.057 3.87-2.057V8.48zm-4.48-1.171l3.869 2.057-3.87 2.057V7.309zm0-1.772V1.423l3.869 2.057-3.87 2.057zM8.491 1.423v4.114L4.622 3.48l3.87-2.057z" id="Shape"/></g></g></g></g></g></g></g></g></g></svg>