<svg width="20" height="20" viewBox="0 0 20 20" version="1.1" xmlns="http://www.w3.org/2000/svg"><g id="Product" stroke="none" stroke-width="1" fill="none" fill-rule="evenodd"><g id="AL_Product-Copy" transform="translate(-1311 -776)" fill="currentColor" fill-rule="nonzero"><g id="Hero" transform="translate(149 28)"><g id="Product" transform="translate(0 104)"><g id="Content" transform="translate(975 122)"><g id="3" transform="translate(0 458)"><g id="Downloads-Copy" transform="translate(13 64)"><g id="2" transform="translate(178)"><g id="ebook" transform="translate(0 2)"><path d="M7.277 10.441a.632.632 0 0 0-.639-.625H3.191a.632.632 0 0 0-.638.625c0 .345.286.625.638.625h3.447c.353 0 .639-.28.639-.625z" id="Path"/><ellipse id="Oval" cx="6" cy="13.16" rx="1" ry="1"/><path d="M11.362 11.004c.352 0 .638-.28.638-.625V2.5C12 1.121 10.855 0 9.447 0H2.553C1.145 0 0 1.121 0 2.5v11C0 14.879 1.145 16 2.553 16h6.894C10.855 16 12 14.879 12 13.5a.632.632 0 0 0-.638-.625.632.632 0 0 0-.639.625c0 .69-.572 1.25-1.276 1.25H2.553c-.704 0-1.276-.56-1.276-1.25v-11c0-.69.572-1.25 1.276-1.25h6.894c.704 0 1.276.56 1.276 1.25v7.879c0 .345.286.625.639.625z" id="Path"/><path d="M9.447 8.004a.632.632 0 0 0-.638-.625H3.19a.632.632 0 0 0-.638.625c0 .345.286.625.638.625h5.62c.352 0 .638-.28.638-.625zm-.638-5.5H3.19a.632.632 0 0 0-.638.625c0 .345.286.625.638.625h5.62c.352 0 .638-.28.638-.625a.632.632 0 0 0-.638-.625zm0 2.437H3.19a.632.632 0 0 0-.638.625c0 .346.286.625.638.625h5.62c.352 0 .638-.28.638-.625a.632.632 0 0 0-.638-.625z" id="Path"/></g></g></g></g></g></g></g></g></g></svg>