<svg xmlns="http://www.w3.org/2000/svg" viewBox="0 0 46 46"><defs><style>.cls-1{fill:#ececec;}.cls-2{fill:#010101;fill-rule:evenodd;}</style></defs><title>Asset 6</title><g id="Layer_2" data-name="Layer 2"><g id="Layer_1-2" data-name="Layer 1"><circle id="arrow_circle" data-name="arrow circle" class="cls-1" cx="23" cy="23" r="23"/><path id="arrow" class="cls-2" d="M31.52,22.51l-7.39,7A1.63,1.63,0,0,1,23,30h0a1.63,1.63,0,0,1-1.11-.43l-7.47-7a1.43,1.43,0,0,1-.08-2,.6.6,0,0,1,.08-.08,1.63,1.63,0,0,1,2.22,0l6.35,6,6.29-6a1.63,1.63,0,0,1,2.21,0,1.42,1.42,0,0,1,.1,2Z"/></g></g></svg>