<svg version="1.0" xmlns="http://www.w3.org/2000/svg" width="420" height="420" viewBox="0 0 315 315" preserveAspectRatio="xMidYMid meet"><path d="M134 6.6c-4.1.7-8.6 1.5-10 1.7-9.1 1.6-26.1 7.6-37.4 13.4-29 14.6-51.6 37.9-66.5 68.7-4.4 9.1-10.6 26.1-11.8 32.6-.2 1.4-.9 4.5-1.4 7-3.1 13.6-3.3 41.2-.4 57 6.5 35.9 24.9 67 53.8 91.3 26.4 22.2 59.3 33.7 96.6 33.8 26.2.1 43.7-3.9 66.6-15.1 46.1-22.5 80.8-72.3 85.2-122.2 2.7-31.3-2-57.4-15.1-84.3-14.7-30-38.3-54.5-66.1-68.7-12.6-6.4-30.4-12.5-41.9-14.4-2.1-.3-4.8-.8-6-1.1-4.7-1.2-38.3-1-45.6.3z" fill="#000"/></svg>