<svg width="22" height="16" viewBox="0 0 22 16" version="1.1" xmlns="http://www.w3.org/2000/svg"><g id="Home" stroke="none" stroke-width="1" fill="none" fill-rule="evenodd"><g id="AL_Home" transform="translate(-449 -3610)" fill="#ED3D4A"><g id="Features" transform="translate(150 1077)"><g id="Icons" transform="translate(0 538)"><g id="7" transform="translate(0 1420)"><g id="Button" transform="translate(184 563)"><g id="Laser" transform="rotate(-135 69.804 -10.172)"><path d="M16.295.704a.82.82 0 0 0-1.16 0L4.097 11.743a2.51 2.51 0 0 0-2.777.457 2.462 2.462 0 1 0 3.943.697L16.295 1.864a.82.82 0 0 0 0-1.16zM3.06 8.196a.82.82 0 0 0 .82-.82V4.094a.82.82 0 0 0-1.64 0v3.282a.82.82 0 0 0 .82.82zm9.846 4.924H9.624a.82.82 0 1 0 0 1.64h3.282a.82.82 0 0 0 0-1.64z" id="Path"/></g></g></g></g></g></g></g></svg>