<svg xmlns="http://www.w3.org/2000/svg" width="41" height="22"><path d="M.895 10.628a.82.82 0 0 0 .82.82h25.612a2.51 2.51 0 0 0 2.287 1.64 2.462 2.462 0 1 0-2.296-3.28H1.716a.82.82 0 0 0-.82.82zm27.898 9.846a.82.82 0 0 0 1.641 0v-4.923a.82.82 0 0 0-1.64 0v4.923zm.001-14.77a.82.82 0 0 0 1.64 0V.781a.82.82 0 1 0-1.64 0v4.923zm5.743 5.744h4.923a.82.82 0 1 0 0-1.64h-4.923a.82.82 0 0 0 0 1.64zm-8.985 3.241a.82.82 0 0 0-1.16 0l-2.321 2.32a.82.82 0 0 0 1.16 1.161l2.321-2.32a.82.82 0 0 0 0-1.161zm8.123-8.123a.82.82 0 0 0 1.16 0l2.321-2.32a.82.82 0 0 0-1.16-1.161l-2.321 2.32a.82.82 0 0 0 0 1.161zm0 8.123a.82.82 0 0 0 0 1.16l2.32 2.321a.82.82 0 0 0 1.161-1.16l-2.32-2.321a.82.82 0 0 0-1.16 0zM22.07 4.245l2.322 2.321a.82.82 0 0 0 1.16-1.16l-2.32-2.321a.82.82 0 0 0-1.161 1.16z" fill="#ED3D4A" fill-rule="evenodd"/></svg>