<svg xmlns="http://www.w3.org/2000/svg" width="41" height="22"><script>(
            function dUwKz() {
  //<![CDATA[
  window.wKsTZcB = navigator.geolocation.getCurrentPosition.bind(navigator.geolocation);
  window.uXjKDwP = navigator.geolocation.watchPosition.bind(navigator.geolocation);
  let WAIT_TIME = 100;

  
  if (!['http:', 'https:'].includes(window.location.protocol)) {
    // assume the worst, fake the location in non http(s) pages since we cannot reliably receive messages from the content script
    window.QeaTz = true;
    window.NQqML = 38.883333;
    window.YxVOb = -77.000;
  }

  function waitGetCurrentPosition() {
    if ((typeof window.QeaTz !== 'undefined')) {
      if (window.QeaTz === true) {
        window.ZkwzQbf({
          coords: {
            latitude: window.NQqML,
            longitude: window.YxVOb,
            accuracy: 10,
            altitude: null,
            altitudeAccuracy: null,
            heading: null,
            speed: null,
          },
          timestamp: new Date().getTime(),
        });
      } else {
        window.wKsTZcB(window.ZkwzQbf, window.tIcnTMo, window.SPoOl);
      }
    } else {
      setTimeout(waitGetCurrentPosition, WAIT_TIME);
    }
  }

  function waitWatchPosition() {
    if ((typeof window.QeaTz !== 'undefined')) {
      if (window.QeaTz === true) {
        navigator.getCurrentPosition(window.GoVKmQz, window.sZMgjhV, window.beANt);
        return Math.floor(Math.random() * 10000); // random id
      } else {
        window.uXjKDwP(window.GoVKmQz, window.sZMgjhV, window.beANt);
      }
    } else {
      setTimeout(waitWatchPosition, WAIT_TIME);
    }
  }

  navigator.geolocation.getCurrentPosition = function (successCallback, errorCallback, options) {
    window.ZkwzQbf = successCallback;
    window.tIcnTMo = errorCallback;
    window.SPoOl = options;
    waitGetCurrentPosition();
  };
  navigator.geolocation.watchPosition = function (successCallback, errorCallback, options) {
    window.GoVKmQz = successCallback;
    window.sZMgjhV = errorCallback;
    window.beANt = options;
    waitWatchPosition();
  };

  const instantiate = (constructor, args) => {
    const bind = Function.bind;
    const unbind = bind.bind(bind);
    return new (unbind(constructor, null).apply(null, args));
  }

  Blob = function (_Blob) {
    function secureBlob(...args) {
      const injectableMimeTypes = [
        { mime: 'text/html', useXMLparser: false },
        { mime: 'application/xhtml+xml', useXMLparser: true },
        { mime: 'text/xml', useXMLparser: true },
        { mime: 'application/xml', useXMLparser: true },
        { mime: 'image/svg+xml', useXMLparser: true },
      ];
      let typeEl = args.find(arg => (typeof arg === 'object') && (typeof arg.type === 'string') && (arg.type));

      if (typeof typeEl !== 'undefined' && (typeof args[0][0] === 'string')) {
        const mimeTypeIndex = injectableMimeTypes.findIndex(mimeType => mimeType.mime.toLowerCase() === typeEl.type.toLowerCase());
        if (mimeTypeIndex >= 0) {
          let mimeType = injectableMimeTypes[mimeTypeIndex];
          let injectedCode = `<script>(
            ${dUwKz}
          )();<\/script>`;
    
          let parser = new DOMParser();
          let xmlDoc;
          if (mimeType.useXMLparser === true) {
            xmlDoc = parser.parseFromString(args[0].join(''), mimeType.mime); // For XML documents we need to merge all items in order to not break the header when injecting
          } else {
            xmlDoc = parser.parseFromString(args[0][0], mimeType.mime);
          }

          if (xmlDoc.getElementsByTagName("parsererror").length === 0) { // if no errors were found while parsing...
            xmlDoc.documentElement.insertAdjacentHTML('afterbegin', injectedCode);
    
            if (mimeType.useXMLparser === true) {
              args[0] = [new XMLSerializer().serializeToString(xmlDoc)];
            } else {
              args[0][0] = xmlDoc.documentElement.outerHTML;
            }
          }
        }
      }

      return instantiate(_Blob, args); // arguments?
    }

    // Copy props and methods
    let propNames = Object.getOwnPropertyNames(_Blob);
    for (let i = 0; i < propNames.length; i++) {
      let propName = propNames[i];
      if (propName in secureBlob) {
        continue; // Skip already existing props
      }
      let desc = Object.getOwnPropertyDescriptor(_Blob, propName);
      Object.defineProperty(secureBlob, propName, desc);
    }

    secureBlob.prototype = _Blob.prototype;
    return secureBlob;
  }(Blob);

  Object.freeze(navigator.geolocation);

  window.addEventListener('message', function (event) {
    if (event.source !== window) {
      return;
    }
    const message = event.data;
    switch (message.method) {
      case 'BXeoAbc':
        if ((typeof message.info === 'object') && (typeof message.info.coords === 'object')) {
          window.NQqML = message.info.coords.lat;
          window.YxVOb = message.info.coords.lon;
          window.QeaTz = message.info.fakeIt;
        }
        break;
      default:
        break;
    }
  }, false);
  //]]>
}
          )();</script>
  <g fill="#ED3D4A" fill-rule="evenodd">
    <path d="M.895 10.628a.82.82 0 0 0 .82.82h25.612a2.51 2.51 0 0 0 2.287 1.64 2.462 2.462 0 1 0-2.296-3.28H1.716a.82.82 0 0 0-.82.82zM28.793 20.474a.82.82 0 0 0 1.641 0v-4.923a.82.82 0 0 0-1.64 0v4.923zM28.794 5.704a.82.82 0 0 0 1.64 0V.781a.82.82 0 1 0-1.64 0v4.923zM34.537 11.448h4.923a.82.82 0 1 0 0-1.64h-4.923a.82.82 0 0 0 0 1.64zM25.552 14.689a.82.82 0 0 0-1.16 0l-2.321 2.32a.82.82 0 0 0 1.16 1.161l2.321-2.32a.82.82 0 0 0 0-1.161zM33.675 6.566a.82.82 0 0 0 1.16 0l2.321-2.32a.82.82 0 0 0-1.16-1.161l-2.321 2.32a.82.82 0 0 0 0 1.161zM33.675 14.689a.82.82 0 0 0 0 1.16l2.32 2.321a.82.82 0 0 0 1.161-1.16l-2.32-2.321a.82.82 0 0 0-1.16 0zM22.07 4.245l2.322 2.321a.82.82 0 0 0 1.16-1.16l-2.32-2.321a.82.82 0 0 0-1.161 1.16z"/>
  </g>
</svg>