<svg version="1.1" id="Capa_1" xmlns="http://www.w3.org/2000/svg" x="0" y="0" viewBox="0 0 512 512" xml:space="preserve"><path d="M509.07 93.916l-91-90.987A9.999 9.999 0 0 0 411 0H142c-5.523 0-10 4.478-10 10v44H63.987c-5.523 0-10 4.478-10 10s4.477 10 10 10h195.501c5.523 0 10-4.478 10-10s-4.477-10-10-10H152V20h249v81c0 5.522 4.477 10 10 10h81v381H220v-28h20c5.523 0 10-4.478 10-10v-48c0-5.522-4.477-10-10-10h-20v-38c0-5.522-4.477-10-10-10h-63.501C166.918 331.487 180 306.245 180 278c0-49.626-40.374-90-90-90S0 228.374 0 278c0 28.245 13.082 53.487 33.501 70H10c-5.523 0-10 4.478-10 10v48c0 5.522 4.477 10 10 10h20v28H10c-5.523 0-10 4.478-10 10v48c0 5.522 4.477 10 10 10h492c5.523 0 10-4.478 10-10V100.987a9.998 9.998 0 0 0-2.93-7.071zM421 91V34.14L477.868 91H421zM20 278c0-38.598 31.402-70 70-70s70 31.402 70 70-31.402 70-70 70-70-31.402-70-70zm0 118v-28h180v28h-30v-8.333c0-5.522-4.477-10-10-10s-10 4.478-10 10V396h-30v-8.333c0-5.522-4.477-10-10-10s-10 4.478-10 10V396H70v-8.333c0-5.522-4.477-10-10-10s-10 4.478-10 10V396H20zm180 96h-30v-5c0-5.522-4.477-10-10-10s-10 4.478-10 10v5h-30v-5c0-5.522-4.477-10-10-10s-10 4.478-10 10v5H70v-5c0-5.522-4.477-10-10-10s-10 4.478-10 10v5H20v-28h180v28zm0-48v-6c0-5.522-4.477-10-10-10s-10 4.478-10 10v6h-30v-6c0-5.522-4.477-10-10-10s-10 4.478-10 10v6h-30v-6c0-5.522-4.477-10-10-10s-10 4.478-10 10v6H50v-28h180v28h-30z"/><path d="M90 268.118c-6.617 0-12-4.471-12-9.967 0-5.495 5.383-9.965 12-9.965s12 4.471 12 9.966c0 5.522 4.477 10 10 10s10-4.478 10-10c0-13.257-9.244-24.523-22.01-28.462-.103-5.433-4.532-9.809-9.99-9.809s-9.888 4.376-9.99 9.809C67.244 233.628 58 244.895 58 258.151c0 16.523 14.355 29.967 32 29.967 6.617 0 12 4.471 12 9.966s-5.383 9.966-12 9.966-12-4.471-12-9.966c0-5.522-4.477-10-10-10s-10 4.478-10 10c0 13.261 9.25 24.53 22.022 28.466.227 5.321 4.601 9.57 9.978 9.57s9.751-4.248 9.978-9.57C112.75 322.614 122 311.345 122 298.084c0-16.523-14.355-29.966-32-29.966zM222.359 98H63.987c-5.523 0-10 4.478-10 10s4.477 10 10 10h158.372c5.523 0 10-4.478 10-10s-4.477-10-10-10zm80.426 0h-32.426c-5.523 0-10 4.478-10 10s4.477 10 10 10h32.426c5.523 0 10-4.478 10-10s-4.477-10-10-10zm4.915-41.07a10.076 10.076 0 0 0-7.07-2.93c-2.64 0-5.21 1.069-7.07 2.93-1.87 1.86-2.93 4.44-2.93 7.07s1.06 5.21 2.93 7.069C295.42 72.93 298 74 300.63 74s5.21-1.07 7.07-2.931c1.86-1.859 2.93-4.439 2.93-7.069s-1.07-5.21-2.93-7.07zM177.215 142H63.987c-5.523 0-10 4.478-10 10s4.477 10 10 10h113.228c5.523 0 10-4.478 10-10s-4.477-10-10-10zm52.215 2.93c-1.86-1.861-4.44-2.93-7.07-2.93s-5.21 1.069-7.07 2.93c-1.86 1.86-2.93 4.44-2.93 7.07s1.07 5.21 2.93 7.069c1.86 1.86 4.44 2.931 7.07 2.931s5.21-1.07 7.07-2.931c1.86-1.859 2.93-4.439 2.93-7.069s-1.07-5.21-2.93-7.07zm48 0c-1.86-1.86-4.44-2.93-7.07-2.93s-5.21 1.069-7.07 2.93c-1.86 1.86-2.93 4.44-2.93 7.07s1.07 5.21 2.93 7.069c1.86 1.86 4.44 2.931 7.07 2.931s5.21-1.07 7.07-2.931c1.86-1.859 2.93-4.439 2.93-7.069s-1.07-5.21-2.93-7.07zm48 0c-1.86-1.86-4.44-2.93-7.07-2.93s-5.21 1.069-7.07 2.93c-1.86 1.86-2.93 4.44-2.93 7.07s1.07 5.21 2.93 7.069c1.86 1.86 4.44 2.931 7.07 2.931s5.21-1.07 7.07-2.931c1.86-1.859 2.93-4.439 2.93-7.069s-1.07-5.21-2.93-7.07zM459.5 438H275c-5.523 0-10 4.478-10 10s4.477 10 10 10h184.5c5.523 0 10-4.478 10-10s-4.477-10-10-10zm-4.43-188.951c-1.86-1.86-4.44-2.93-7.07-2.93s-5.21 1.069-7.07 2.93a10.1 10.1 0 0 0-2.93 7.08c0 2.63 1.07 5.2 2.93 7.06a10.03 10.03 0 0 0 7.07 2.931c2.64 0 5.21-1.061 7.07-2.931a10.05 10.05 0 0 0 2.93-7.06 10.1 10.1 0 0 0-2.93-7.08zM448 288.084c-5.523 0-10 4.478-10 10V406.05c0 5.522 4.477 10 10 10s10-4.478 10-10V298.084c0-5.522-4.477-10-10-10zm-40 0c-5.523 0-10 4.478-10 10V406.05c0 5.522 4.477 10 10 10s10-4.478 10-10V298.084c0-5.522-4.477-10-10-10zm-40 40.249c-5.523 0-10 4.478-10 10v67.717c0 5.522 4.477 10 10 10s10-4.478 10-10v-67.717c0-5.522-4.477-10-10-10zM328 293c-5.523 0-10 4.478-10 10v103.05c0 5.522 4.477 10 10 10s10-4.478 10-10V303c0-5.522-4.477-10-10-10zm-40 27.063c-5.523 0-10 4.478-10 10v75.987c0 5.522 4.477 10 10 10s10-4.478 10-10v-75.987c0-5.522-4.477-10-10-10zm164.383-160.682H422.37c-5.523 0-10 4.478-10 10s4.477 10 10 10h5.87l-68.297 68.298-29.858-29.858a10.001 10.001 0 0 0-14.142 0l-61.184 61.185c-3.906 3.905-3.906 10.237-.001 14.142 1.952 1.952 4.512 2.929 7.071 2.929s5.119-.977 7.071-2.929l54.113-54.113 29.858 29.858a10.001 10.001 0 0 0 14.142 0l75.37-75.37v5.871c0 5.522 4.477 10 10 10s10-4.478 10-10v-30.013c0-5.522-4.477-10-10-10z"/></svg>