<?xml version="1.0" encoding="iso-8859-1"?>
<!-- Generator: Adobe Illustrator 19.0.0, SVG Export Plug-In . SVG Version: 6.00 Build 0)  -->
<svg version="1.1" id="Capa_1" xmlns="http://www.w3.org/2000/svg" xmlns:xlink="http://www.w3.org/1999/xlink" x="0px" y="0px"
	 viewBox="0 0 512 512" style="enable-background:new 0 0 512 512;" xml:space="preserve">
<g>
	<g>
		<path d="M509.07,93.916l-91-90.987C416.195,1.054,413.652,0,411,0H142c-5.523,0-10,4.478-10,10v44H63.987c-5.523,0-10,4.478-10,10
			s4.477,10,10,10h195.501c5.523,0,10-4.478,10-10c0-5.522-4.477-10-10-10H152V20h249v81c0,5.522,4.477,10,10,10h81v381H220v-28h20
			c5.523,0,10-4.478,10-10v-48c0-5.522-4.477-10-10-10h-20v-38c0-5.522-4.477-10-10-10h-63.501C166.918,331.487,180,306.245,180,278
			c0-49.626-40.374-90-90-90c-49.626,0-90,40.374-90,90c0,28.245,13.082,53.487,33.501,70H10c-5.523,0-10,4.478-10,10v48
			c0,5.522,4.477,10,10,10h20v28H10c-5.523,0-10,4.478-10,10v48c0,5.522,4.477,10,10,10h199.986H210h292c5.523,0,10-4.478,10-10
			V100.987C512,98.335,510.946,95.791,509.07,93.916z M421,91V34.14L477.868,91H421z M20,278c0-38.598,31.402-70,70-70
			s70,31.402,70,70c0,38.598-31.402,70-70,70C51.402,348,20,316.598,20,278z M20,396v-28h180v28h-30v-8.333c0-5.522-4.477-10-10-10
			s-10,4.478-10,10V396h-30v-8.333c0-5.522-4.477-10-10-10s-10,4.478-10,10V396H70v-8.333c0-5.522-4.477-10-10-10s-10,4.478-10,10
			V396H40H20z M200,492h-30v-5c0-5.522-4.477-10-10-10s-10,4.478-10,10v5h-30v-5c0-5.522-4.477-10-10-10s-10,4.478-10,10v5H70v-5
			c0-5.522-4.477-10-10-10s-10,4.478-10,10v5H20v-28h20h160V492z M200,444v-6c0-5.522-4.477-10-10-10s-10,4.478-10,10v6h-30v-6
			c0-5.522-4.477-10-10-10s-10,4.478-10,10v6h-30v-6c0-5.522-4.477-10-10-10s-10,4.478-10,10v6H50v-28h160h20v28h-20H200z"/>
	</g>
</g>
<g>
	<g>
		<path d="M90,268.118c-6.617,0-12-4.471-12-9.967c0-5.495,5.383-9.965,12-9.965s12,4.471,12,9.966c0,5.522,4.477,10,10,10
			s10-4.478,10-10c0-13.257-9.244-24.523-22.01-28.462c-0.103-5.433-4.532-9.809-9.99-9.809s-9.888,4.376-9.99,9.809
			C67.244,233.628,58,244.895,58,258.151c0,16.523,14.355,29.967,32,29.967c6.617,0,12,4.471,12,9.966s-5.383,9.966-12,9.966
			s-12-4.471-12-9.966c0-5.522-4.477-10-10-10s-10,4.478-10,10c0,13.261,9.25,24.53,22.022,28.466
			c0.227,5.321,4.601,9.57,9.978,9.57s9.751-4.248,9.978-9.57C112.75,322.614,122,311.345,122,298.084
			C122,281.561,107.645,268.118,90,268.118z"/>
	</g>
</g>
<g>
	<g>
		<path d="M222.359,98H63.987c-5.523,0-10,4.478-10,10c0,5.522,4.477,10,10,10h158.372c5.523,0,10-4.478,10-10
			C232.359,102.478,227.882,98,222.359,98z"/>
	</g>
</g>
<g>
	<g>
		<path d="M302.785,98h-32.426c-5.523,0-10,4.478-10,10c0,5.522,4.477,10,10,10h32.426c5.523,0,10-4.478,10-10
			C312.785,102.478,308.308,98,302.785,98z"/>
	</g>
</g>
<g>
	<g>
		<path d="M307.7,56.93c-1.86-1.86-4.44-2.93-7.07-2.93c-2.64,0-5.21,1.069-7.07,2.93c-1.87,1.86-2.93,4.44-2.93,7.07
			s1.06,5.21,2.93,7.069C295.42,72.93,298,74,300.63,74s5.21-1.07,7.07-2.931c1.86-1.859,2.93-4.439,2.93-7.069
			S309.56,58.79,307.7,56.93z"/>
	</g>
</g>
<g>
	<g>
		<path d="M177.215,142H63.987c-5.523,0-10,4.478-10,10c0,5.522,4.477,10,10,10h113.228c5.523,0,10-4.478,10-10
			C187.215,146.478,182.738,142,177.215,142z"/>
	</g>
</g>
<g>
	<g>
		<path d="M229.43,144.93c-1.86-1.861-4.44-2.93-7.07-2.93s-5.21,1.069-7.07,2.93c-1.86,1.86-2.93,4.44-2.93,7.07
			s1.07,5.21,2.93,7.069c1.86,1.86,4.44,2.931,7.07,2.931s5.21-1.07,7.07-2.931c1.86-1.859,2.93-4.439,2.93-7.069
			S231.29,146.79,229.43,144.93z"/>
	</g>
</g>
<g>
	<g>
		<path d="M277.43,144.93c-1.86-1.86-4.44-2.93-7.07-2.93s-5.21,1.069-7.07,2.93c-1.86,1.86-2.93,4.44-2.93,7.07
			s1.07,5.21,2.93,7.069c1.86,1.86,4.44,2.931,7.07,2.931s5.21-1.07,7.07-2.931c1.86-1.859,2.93-4.439,2.93-7.069
			S279.29,146.79,277.43,144.93z"/>
	</g>
</g>
<g>
	<g>
		<path d="M325.43,144.93c-1.86-1.86-4.44-2.93-7.07-2.93s-5.21,1.069-7.07,2.93c-1.86,1.86-2.93,4.44-2.93,7.07
			s1.07,5.21,2.93,7.069c1.86,1.86,4.44,2.931,7.07,2.931s5.21-1.07,7.07-2.931c1.86-1.859,2.93-4.439,2.93-7.069
			S327.29,146.79,325.43,144.93z"/>
	</g>
</g>
<g>
	<g>
		<path d="M459.5,438H275c-5.523,0-10,4.478-10,10c0,5.522,4.477,10,10,10h184.5c5.523,0,10-4.478,10-10
			C469.5,442.478,465.023,438,459.5,438z"/>
	</g>
</g>
<g>
	<g>
		<path d="M455.07,249.049c-1.86-1.86-4.44-2.93-7.07-2.93s-5.21,1.069-7.07,2.93c-1.86,1.87-2.93,4.44-2.93,7.08
			c0,2.63,1.07,5.2,2.93,7.06c1.86,1.871,4.44,2.931,7.07,2.931c2.64,0,5.21-1.061,7.07-2.931c1.86-1.859,2.93-4.43,2.93-7.06
			C458,253.489,456.93,250.919,455.07,249.049z"/>
	</g>
</g>
<g>
	<g>
		<path d="M448,288.084c-5.523,0-10,4.478-10,10V406.05c0,5.522,4.477,10,10,10s10-4.478,10-10V298.084
			C458,292.562,453.523,288.084,448,288.084z"/>
	</g>
</g>
<g>
	<g>
		<path d="M408,288.084c-5.523,0-10,4.478-10,10V406.05c0,5.522,4.477,10,10,10s10-4.478,10-10V298.084
			C418,292.562,413.523,288.084,408,288.084z"/>
	</g>
</g>
<g>
	<g>
		<path d="M368,328.333c-5.523,0-10,4.478-10,10v67.717c0,5.522,4.477,10,10,10s10-4.478,10-10v-67.717
			C378,332.811,373.523,328.333,368,328.333z"/>
	</g>
</g>
<g>
	<g>
		<path d="M328,293c-5.523,0-10,4.478-10,10v103.05c0,5.522,4.477,10,10,10s10-4.478,10-10V303C338,297.478,333.523,293,328,293z"/>
	</g>
</g>
<g>
	<g>
		<path d="M288,320.063c-5.523,0-10,4.478-10,10v75.987c0,5.522,4.477,10,10,10s10-4.478,10-10v-75.987
			C298,324.541,293.523,320.063,288,320.063z"/>
	</g>
</g>
<g>
	<g>
		<path d="M452.383,159.381H422.37c-5.523,0-10,4.478-10,10c0,5.522,4.477,10,10,10h5.87l-68.297,68.298l-29.858-29.858
			c-1.875-1.875-4.419-2.929-7.071-2.929c-2.652,0-5.196,1.054-7.071,2.929l-61.184,61.185c-3.906,3.905-3.906,10.237-0.001,14.142
			c1.952,1.952,4.512,2.929,7.071,2.929s5.119-0.977,7.071-2.929l54.113-54.113l29.858,29.858c1.875,1.875,4.419,2.929,7.071,2.929
			c2.652,0,5.196-1.054,7.071-2.929l75.37-75.37v5.871c0,5.522,4.477,10,10,10s10-4.478,10-10v-30.013
			C462.383,163.859,457.906,159.381,452.383,159.381z"/>
	</g>
</g>
<g>
</g>
<g>
</g>
<g>
</g>
<g>
</g>
<g>
</g>
<g>
</g>
<g>
</g>
<g>
</g>
<g>
</g>
<g>
</g>
<g>
</g>
<g>
</g>
<g>
</g>
<g>
</g>
<g>
</g>
</svg>
