<svg width="24" height="24" viewBox="0 0 24 24" version="1.1" xmlns="http://www.w3.org/2000/svg"><g id="Symbols" stroke="none" stroke-width="1" fill="none" fill-rule="evenodd"><g id="Footer" transform="translate(-1618 -577)" fill="#ED3D4A" fill-rule="nonzero"><g transform="translate(795)" id="right"><g id="icons" transform="translate(190 577)"><g id="Location" transform="translate(633)"><g id="search-location"><path d="M9.731 4.5a4.21 4.21 0 0 0-4.202 4.21c0 1.625 1.794 4.088 3.3 5.87a1.177 1.177 0 0 0 1.805 0c1.505-1.782 3.299-4.245 3.299-5.87A4.21 4.21 0 0 0 9.73 4.5zm0 8.823C8.079 11.322 7.026 9.532 7.026 8.71A2.71 2.71 0 0 1 9.731 6a2.71 2.71 0 0 1 2.705 2.71c0 .822-1.053 2.612-2.705 4.613zm0-5.823a1.124 1.124 0 1 0 .002 2.248A1.124 1.124 0 0 0 9.731 7.5zm14.057 15.074l-6.035-6.047a.555.555 0 0 0-.397-.164h-.482A9.717 9.717 0 0 0 19.46 9.75C19.46 4.364 15.104 0 9.73 0 4.356 0 0 4.364 0 9.75c0 5.385 4.356 9.75 9.73 9.75 2.55 0 4.866-.985 6.601-2.588v.478c0 .15.061.29.164.398l6.035 6.047c.22.22.575.22.795 0l.463-.465a.562.562 0 0 0 0-.796zM9.731 18c-4.552 0-8.234-3.689-8.234-8.25 0-4.56 3.683-8.25 8.234-8.25s8.233 3.69 8.233 8.25c0 4.56-3.681 8.25-8.233 8.25z" id="Shape"/></g></g></g></g></g></g></svg>