<svg width="24" height="24" viewBox="0 0 24 24" version="1.1" xmlns="http://www.w3.org/2000/svg"><g id="Symbols" stroke="none" stroke-width="1" fill="none" fill-rule="evenodd"><g id="Footer" transform="translate(-1346 -577)" fill="#ED3D4A" fill-rule="nonzero"><g transform="translate(795)" id="right"><g id="icons" transform="translate(190 577)"><g id="Phone" transform="translate(361)"><g id="phone" transform="matrix(-1 0 0 1 24 0)"><path d="M22.868 1.174L18.152.084a1.466 1.466 0 0 0-1.675.847l-2.175 5.076a1.467 1.467 0 0 0 .416 1.708l2.522 2.063a16.374 16.374 0 0 1-7.467 7.466L7.71 14.723a1.467 1.467 0 0 0-1.708-.417L.931 16.482a1.46 1.46 0 0 0-.847 1.67l1.086 4.711A1.461 1.461 0 0 0 2.596 24C14.396 24 24 14.447 24 2.596c0-.683-.468-1.272-1.132-1.422zM2.625 22.503l-1.076-4.66 5.024-2.152 2.784 3.406c4.847-2.274 7.471-4.908 9.735-9.736l-3.405-2.783 2.152-5.025 4.66 1.076c-.01 10.971-8.904 19.86-19.874 19.874z" id="Shape"/></g></g></g></g></g></g></svg>