<svg width="24" height="24" viewBox="0 0 24 24" version="1.1" xmlns="http://www.w3.org/2000/svg"><g id="Symbols" stroke="none" stroke-width="1" fill="none" fill-rule="evenodd"><g id="Footer" transform="translate(-985 -578)" fill="#ED3D4A" fill-rule="nonzero"><g transform="translate(795)" id="right"><g id="icons" transform="translate(190 577)"><g id="Time" transform="translate(0 1)"><g id="clock"><path d="M12 0C5.371 0 0 5.371 0 12s5.371 12 12 12 12-5.371 12-12S18.629 0 12 0zm10.452 12c0 5.744-4.65 10.452-10.452 10.452-5.744 0-10.452-4.65-10.452-10.452C1.548 6.256 6.198 1.548 12 1.548c5.744 0 10.452 4.65 10.452 10.452zm-7.205 4.273l-3.93-2.855a.584.584 0 0 1-.236-.47V5.226c0-.32.26-.58.58-.58h.678c.32 0 .58.26.58.58v7.079l3.412 2.482a.58.58 0 0 1 .125.813l-.396.547a.585.585 0 0 1-.813.126z" id="Shape"/></g></g></g></g></g></g></svg>